<?xml version="1.0" encoding="utf-8" standalone="no"?>
<!DOCTYPE svg PUBLIC "-//W3C//DTD SVG 1.1//EN"
  "http://www.w3.org/Graphics/SVG/1.1/DTD/svg11.dtd">
<svg xmlns:xlink="http://www.w3.org/1999/xlink" width="911.63625pt" height="354.799144pt" viewBox="0 0 911.63625 354.799144" xmlns="http://www.w3.org/2000/svg" version="1.1">
 <metadata>
  <rdf:RDF xmlns:dc="http://purl.org/dc/elements/1.1/" xmlns:cc="http://creativecommons.org/ns#" xmlns:rdf="http://www.w3.org/1999/02/22-rdf-syntax-ns#">
   <cc:Work>
    <dc:type rdf:resource="http://purl.org/dc/dcmitype/StillImage"/>
    <dc:date>2026-09-24T19:12:22.847559</dc:date>
    <dc:format>image/svg+xml</dc:format>
    <dc:creator>
     <cc:Agent>
      <dc:title>Matplotlib v3.11.2, https://matplotlib.org/</dc:title>
     </cc:Agent>
    </dc:creator>
   </cc:Work>
  </rdf:RDF>
 </metadata>
 <defs>
  <style type="text/css">*{stroke-linejoin: round; stroke-linecap: butt}</style>
 </defs>
 <g id="figure_1">
  <g id="patch_1">
   <path d="M 0 354.799144
L 911.63625 354.799144
L 911.63625 0
L 0 0
z
" style="fill: #f7f9fc"/>
  </g>
  <g id="axes_1">
   <g id="patch_2">
    <path d="M 35.19625 288.912
L 449.57625 288.912
L 449.57625 90.899516
L 35.19625 90.899516
z
" style="fill: #f7f9fc"/>
   </g>
   <g id="matplotlib.axis_1">
    <g id="xtick_1">
     <g id="line2d_1">
      <defs>
       <path id="m5a3cc5bfc1" d="M 0 0
L 0 3.5
" style="stroke: #000000; stroke-width: 0.8"/>
      </defs>
      <g>
       <use xlink:href="#m5a3cc5bfc1" x="100.231876" y="288.912" style="stroke: #000000; stroke-width: 0.8"/>
      </g>
     </g>
     <g id="text_1">
      <!-- 1729 -->
      <g transform="translate(86.234376 304.269422) scale(0.11 -0.11)">
       <defs>
        <path id="DejaVuSans-14" d="M 794 531
L 1825 531
L 1825 4091
L 703 3866
L 703 4441
L 1819 4666
L 2450 4666
L 2450 531
L 3481 531
L 3481 0
L 794 0
L 794 531
z
" transform="scale(0.015625)"/>
        <path id="DejaVuSans-1a" d="M 525 4666
L 3525 4666
L 3525 4397
L 1831 0
L 1172 0
L 2766 4134
L 525 4134
L 525 4666
z
" transform="scale(0.015625)"/>
        <path id="DejaVuSans-15" d="M 1228 531
L 3431 531
L 3431 0
L 469 0
L 469 531
Q 828 903 1448 1529
Q 2069 2156 2228 2338
Q 2531 2678 2651 2914
Q 2772 3150 2772 3378
Q 2772 3750 2511 3984
Q 2250 4219 1831 4219
Q 1534 4219 1204 4116
Q 875 4013 500 3803
L 500 4441
Q 881 4594 1212 4672
Q 1544 4750 1819 4750
Q 2544 4750 2975 4387
Q 3406 4025 3406 3419
Q 3406 3131 3298 2873
Q 3191 2616 2906 2266
Q 2828 2175 2409 1742
Q 1991 1309 1228 531
z
" transform="scale(0.015625)"/>
        <path id="DejaVuSans-1c" d="M 703 97
L 703 672
Q 941 559 1184 500
Q 1428 441 1663 441
Q 2288 441 2617 861
Q 2947 1281 2994 2138
Q 2813 1869 2534 1725
Q 2256 1581 1919 1581
Q 1219 1581 811 2004
Q 403 2428 403 3163
Q 403 3881 828 4315
Q 1253 4750 1959 4750
Q 2769 4750 3195 4129
Q 3622 3509 3622 2328
Q 3622 1225 3098 567
Q 2575 -91 1691 -91
Q 1453 -91 1209 -44
Q 966 3 703 97
z
M 1959 2075
Q 2384 2075 2632 2365
Q 2881 2656 2881 3163
Q 2881 3666 2632 3958
Q 2384 4250 1959 4250
Q 1534 4250 1286 3958
Q 1038 3666 1038 3163
Q 1038 2656 1286 2365
Q 1534 2075 1959 2075
z
" transform="scale(0.015625)"/>
       </defs>
       <use xlink:href="#DejaVuSans-14"/>
       <use xlink:href="#DejaVuSans-1a" transform="translate(63.625 0)"/>
       <use xlink:href="#DejaVuSans-15" transform="translate(127.25 0)"/>
       <use xlink:href="#DejaVuSans-1c" transform="translate(190.875 0)"/>
      </g>
     </g>
    </g>
    <g id="xtick_2">
     <g id="line2d_2">
      <g>
       <use xlink:href="#m5a3cc5bfc1" x="242.38625" y="288.912" style="stroke: #000000; stroke-width: 0.8"/>
      </g>
     </g>
     <g id="text_2">
      <!-- 1730 -->
      <g transform="translate(228.38875 304.269422) scale(0.11 -0.11)">
       <defs>
        <path id="DejaVuSans-16" d="M 2597 2516
Q 3050 2419 3304 2112
Q 3559 1806 3559 1356
Q 3559 666 3084 287
Q 2609 -91 1734 -91
Q 1441 -91 1130 -33
Q 819 25 488 141
L 488 750
Q 750 597 1062 519
Q 1375 441 1716 441
Q 2309 441 2620 675
Q 2931 909 2931 1356
Q 2931 1769 2642 2001
Q 2353 2234 1838 2234
L 1294 2234
L 1294 2753
L 1863 2753
Q 2328 2753 2575 2939
Q 2822 3125 2822 3475
Q 2822 3834 2567 4026
Q 2313 4219 1838 4219
Q 1578 4219 1281 4162
Q 984 4106 628 3988
L 628 4550
Q 988 4650 1302 4700
Q 1616 4750 1894 4750
Q 2613 4750 3031 4423
Q 3450 4097 3450 3541
Q 3450 3153 3228 2886
Q 3006 2619 2597 2516
z
" transform="scale(0.015625)"/>
        <path id="DejaVuSans-13" d="M 2034 4250
Q 1547 4250 1301 3770
Q 1056 3291 1056 2328
Q 1056 1369 1301 889
Q 1547 409 2034 409
Q 2525 409 2770 889
Q 3016 1369 3016 2328
Q 3016 3291 2770 3770
Q 2525 4250 2034 4250
z
M 2034 4750
Q 2819 4750 3233 4129
Q 3647 3509 3647 2328
Q 3647 1150 3233 529
Q 2819 -91 2034 -91
Q 1250 -91 836 529
Q 422 1150 422 2328
Q 422 3509 836 4129
Q 1250 4750 2034 4750
z
" transform="scale(0.015625)"/>
       </defs>
       <use xlink:href="#DejaVuSans-14"/>
       <use xlink:href="#DejaVuSans-1a" transform="translate(63.625 0)"/>
       <use xlink:href="#DejaVuSans-16" transform="translate(127.25 0)"/>
       <use xlink:href="#DejaVuSans-13" transform="translate(190.875 0)"/>
      </g>
     </g>
    </g>
    <g id="xtick_3">
     <g id="line2d_3">
      <g>
       <use xlink:href="#m5a3cc5bfc1" x="384.540624" y="288.912" style="stroke: #000000; stroke-width: 0.8"/>
      </g>
     </g>
     <g id="text_3">
      <!-- 1731 -->
      <g transform="translate(370.543124 304.269422) scale(0.11 -0.11)">
       <use xlink:href="#DejaVuSans-14"/>
       <use xlink:href="#DejaVuSans-1a" transform="translate(63.625 0)"/>
       <use xlink:href="#DejaVuSans-16" transform="translate(127.25 0)"/>
       <use xlink:href="#DejaVuSans-14" transform="translate(190.875 0)"/>
      </g>
     </g>
    </g>
    <g id="text_4">
     <!-- Training seed (same validation queries) -->
     <g transform="translate(133.820547 319.270281) scale(0.11 -0.11)">
      <defs>
       <path id="DejaVuSans-37" d="M -19 4666
L 3928 4666
L 3928 4134
L 2272 4134
L 2272 0
L 1638 0
L 1638 4134
L -19 4134
L -19 4666
z
" transform="scale(0.015625)"/>
       <path id="DejaVuSans-55" d="M 2631 2963
Q 2534 3019 2420 3045
Q 2306 3072 2169 3072
Q 1681 3072 1420 2755
Q 1159 2438 1159 1844
L 1159 0
L 581 0
L 581 3500
L 1159 3500
L 1159 2956
Q 1341 3275 1631 3429
Q 1922 3584 2338 3584
Q 2397 3584 2469 3576
Q 2541 3569 2628 3553
L 2631 2963
z
" transform="scale(0.015625)"/>
       <path id="DejaVuSans-44" d="M 2194 1759
Q 1497 1759 1228 1600
Q 959 1441 959 1056
Q 959 750 1161 570
Q 1363 391 1709 391
Q 2188 391 2477 730
Q 2766 1069 2766 1631
L 2766 1759
L 2194 1759
z
M 3341 1997
L 3341 0
L 2766 0
L 2766 531
Q 2569 213 2275 61
Q 1981 -91 1556 -91
Q 1019 -91 701 211
Q 384 513 384 1019
Q 384 1609 779 1909
Q 1175 2209 1959 2209
L 2766 2209
L 2766 2266
Q 2766 2663 2505 2880
Q 2244 3097 1772 3097
Q 1472 3097 1187 3025
Q 903 2953 641 2809
L 641 3341
Q 956 3463 1253 3523
Q 1550 3584 1831 3584
Q 2591 3584 2966 3190
Q 3341 2797 3341 1997
z
" transform="scale(0.015625)"/>
       <path id="DejaVuSans-4c" d="M 603 3500
L 1178 3500
L 1178 0
L 603 0
L 603 3500
z
M 603 4863
L 1178 4863
L 1178 4134
L 603 4134
L 603 4863
z
" transform="scale(0.015625)"/>
       <path id="DejaVuSans-51" d="M 3513 2113
L 3513 0
L 2938 0
L 2938 2094
Q 2938 2591 2744 2837
Q 2550 3084 2163 3084
Q 1697 3084 1428 2787
Q 1159 2491 1159 1978
L 1159 0
L 581 0
L 581 3500
L 1159 3500
L 1159 2956
Q 1366 3272 1645 3428
Q 1925 3584 2291 3584
Q 2894 3584 3203 3211
Q 3513 2838 3513 2113
z
" transform="scale(0.015625)"/>
       <path id="DejaVuSans-4a" d="M 2906 1791
Q 2906 2416 2648 2759
Q 2391 3103 1925 3103
Q 1463 3103 1205 2759
Q 947 2416 947 1791
Q 947 1169 1205 825
Q 1463 481 1925 481
Q 2391 481 2648 825
Q 2906 1169 2906 1791
z
M 3481 434
Q 3481 -459 3084 -895
Q 2688 -1331 1869 -1331
Q 1566 -1331 1297 -1286
Q 1028 -1241 775 -1147
L 775 -588
Q 1028 -725 1275 -790
Q 1522 -856 1778 -856
Q 2344 -856 2625 -561
Q 2906 -266 2906 331
L 2906 616
Q 2728 306 2450 153
Q 2172 0 1784 0
Q 1141 0 747 490
Q 353 981 353 1791
Q 353 2603 747 3093
Q 1141 3584 1784 3584
Q 2172 3584 2450 3431
Q 2728 3278 2906 2969
L 2906 3500
L 3481 3500
L 3481 434
z
" transform="scale(0.015625)"/>
       <path id="DejaVuSans-3" transform="scale(0.015625)"/>
       <path id="DejaVuSans-56" d="M 2834 3397
L 2834 2853
Q 2591 2978 2328 3040
Q 2066 3103 1784 3103
Q 1356 3103 1142 2972
Q 928 2841 928 2578
Q 928 2378 1081 2264
Q 1234 2150 1697 2047
L 1894 2003
Q 2506 1872 2764 1633
Q 3022 1394 3022 966
Q 3022 478 2636 193
Q 2250 -91 1575 -91
Q 1294 -91 989 -36
Q 684 19 347 128
L 347 722
Q 666 556 975 473
Q 1284 391 1588 391
Q 1994 391 2212 530
Q 2431 669 2431 922
Q 2431 1156 2273 1281
Q 2116 1406 1581 1522
L 1381 1569
Q 847 1681 609 1914
Q 372 2147 372 2553
Q 372 3047 722 3315
Q 1072 3584 1716 3584
Q 2034 3584 2315 3537
Q 2597 3491 2834 3397
z
" transform="scale(0.015625)"/>
       <path id="DejaVuSans-48" d="M 3597 1894
L 3597 1613
L 953 1613
Q 991 1019 1311 708
Q 1631 397 2203 397
Q 2534 397 2845 478
Q 3156 559 3463 722
L 3463 178
Q 3153 47 2828 -22
Q 2503 -91 2169 -91
Q 1331 -91 842 396
Q 353 884 353 1716
Q 353 2575 817 3079
Q 1281 3584 2069 3584
Q 2775 3584 3186 3129
Q 3597 2675 3597 1894
z
M 3022 2063
Q 3016 2534 2758 2815
Q 2500 3097 2075 3097
Q 1594 3097 1305 2825
Q 1016 2553 972 2059
L 3022 2063
z
" transform="scale(0.015625)"/>
       <path id="DejaVuSans-47" d="M 2906 2969
L 2906 4863
L 3481 4863
L 3481 0
L 2906 0
L 2906 525
Q 2725 213 2448 61
Q 2172 -91 1784 -91
Q 1150 -91 751 415
Q 353 922 353 1747
Q 353 2572 751 3078
Q 1150 3584 1784 3584
Q 2172 3584 2448 3432
Q 2725 3281 2906 2969
z
M 947 1747
Q 947 1113 1208 752
Q 1469 391 1925 391
Q 2381 391 2643 752
Q 2906 1113 2906 1747
Q 2906 2381 2643 2742
Q 2381 3103 1925 3103
Q 1469 3103 1208 2742
Q 947 2381 947 1747
z
" transform="scale(0.015625)"/>
       <path id="DejaVuSans-b" d="M 1984 4856
Q 1566 4138 1362 3434
Q 1159 2731 1159 2009
Q 1159 1288 1364 580
Q 1569 -128 1984 -844
L 1484 -844
Q 1016 -109 783 600
Q 550 1309 550 2009
Q 550 2706 781 3412
Q 1013 4119 1484 4856
L 1984 4856
z
" transform="scale(0.015625)"/>
       <path id="DejaVuSans-50" d="M 3328 2828
Q 3544 3216 3844 3400
Q 4144 3584 4550 3584
Q 5097 3584 5394 3201
Q 5691 2819 5691 2113
L 5691 0
L 5113 0
L 5113 2094
Q 5113 2597 4934 2840
Q 4756 3084 4391 3084
Q 3944 3084 3684 2787
Q 3425 2491 3425 1978
L 3425 0
L 2847 0
L 2847 2094
Q 2847 2600 2669 2842
Q 2491 3084 2119 3084
Q 1678 3084 1418 2786
Q 1159 2488 1159 1978
L 1159 0
L 581 0
L 581 3500
L 1159 3500
L 1159 2956
Q 1356 3278 1631 3431
Q 1906 3584 2284 3584
Q 2666 3584 2933 3390
Q 3200 3197 3328 2828
z
" transform="scale(0.015625)"/>
       <path id="DejaVuSans-59" d="M 191 3500
L 800 3500
L 1894 563
L 2988 3500
L 3597 3500
L 2284 0
L 1503 0
L 191 3500
z
" transform="scale(0.015625)"/>
       <path id="DejaVuSans-4f" d="M 603 4863
L 1178 4863
L 1178 0
L 603 0
L 603 4863
z
" transform="scale(0.015625)"/>
       <path id="DejaVuSans-57" d="M 1172 4494
L 1172 3500
L 2356 3500
L 2356 3053
L 1172 3053
L 1172 1153
Q 1172 725 1289 603
Q 1406 481 1766 481
L 2356 481
L 2356 0
L 1766 0
Q 1100 0 847 248
Q 594 497 594 1153
L 594 3053
L 172 3053
L 172 3500
L 594 3500
L 594 4494
L 1172 4494
z
" transform="scale(0.015625)"/>
       <path id="DejaVuSans-52" d="M 1959 3097
Q 1497 3097 1228 2736
Q 959 2375 959 1747
Q 959 1119 1226 758
Q 1494 397 1959 397
Q 2419 397 2687 759
Q 2956 1122 2956 1747
Q 2956 2369 2687 2733
Q 2419 3097 1959 3097
z
M 1959 3584
Q 2709 3584 3137 3096
Q 3566 2609 3566 1747
Q 3566 888 3137 398
Q 2709 -91 1959 -91
Q 1206 -91 779 398
Q 353 888 353 1747
Q 353 2609 779 3096
Q 1206 3584 1959 3584
z
" transform="scale(0.015625)"/>
       <path id="DejaVuSans-54" d="M 947 1747
Q 947 1113 1208 752
Q 1469 391 1925 391
Q 2381 391 2643 752
Q 2906 1113 2906 1747
Q 2906 2381 2643 2742
Q 2381 3103 1925 3103
Q 1469 3103 1208 2742
Q 947 2381 947 1747
z
M 2906 525
Q 2725 213 2448 61
Q 2172 -91 1784 -91
Q 1150 -91 751 415
Q 353 922 353 1747
Q 353 2572 751 3078
Q 1150 3584 1784 3584
Q 2172 3584 2448 3432
Q 2725 3281 2906 2969
L 2906 3500
L 3481 3500
L 3481 -1331
L 2906 -1331
L 2906 525
z
" transform="scale(0.015625)"/>
       <path id="DejaVuSans-58" d="M 544 1381
L 544 3500
L 1119 3500
L 1119 1403
Q 1119 906 1312 657
Q 1506 409 1894 409
Q 2359 409 2629 706
Q 2900 1003 2900 1516
L 2900 3500
L 3475 3500
L 3475 0
L 2900 0
L 2900 538
Q 2691 219 2414 64
Q 2138 -91 1772 -91
Q 1169 -91 856 284
Q 544 659 544 1381
z
M 1991 3584
L 1991 3584
z
" transform="scale(0.015625)"/>
       <path id="DejaVuSans-c" d="M 513 4856
L 1013 4856
Q 1481 4119 1714 3412
Q 1947 2706 1947 2009
Q 1947 1309 1714 600
Q 1481 -109 1013 -844
L 513 -844
Q 928 -128 1133 580
Q 1338 1288 1338 2009
Q 1338 2731 1133 3434
Q 928 4138 513 4856
z
" transform="scale(0.015625)"/>
      </defs>
      <use xlink:href="#DejaVuSans-37"/>
      <use xlink:href="#DejaVuSans-55" transform="translate(46.375 0)"/>
      <use xlink:href="#DejaVuSans-44" transform="translate(87.484375 0)"/>
      <use xlink:href="#DejaVuSans-4c" transform="translate(148.765625 0)"/>
      <use xlink:href="#DejaVuSans-51" transform="translate(176.546875 0)"/>
      <use xlink:href="#DejaVuSans-4c" transform="translate(239.921875 0)"/>
      <use xlink:href="#DejaVuSans-51" transform="translate(267.703125 0)"/>
      <use xlink:href="#DejaVuSans-4a" transform="translate(331.078125 0)"/>
      <use xlink:href="#DejaVuSans-3" transform="translate(394.5625 0)"/>
      <use xlink:href="#DejaVuSans-56" transform="translate(426.34375 0)"/>
      <use xlink:href="#DejaVuSans-48" transform="translate(478.4375 0)"/>
      <use xlink:href="#DejaVuSans-48" transform="translate(539.96875 0)"/>
      <use xlink:href="#DejaVuSans-47" transform="translate(601.5 0)"/>
      <use xlink:href="#DejaVuSans-3" transform="translate(664.984375 0)"/>
      <use xlink:href="#DejaVuSans-b" transform="translate(696.765625 0)"/>
      <use xlink:href="#DejaVuSans-56" transform="translate(735.78125 0)"/>
      <use xlink:href="#DejaVuSans-44" transform="translate(787.875 0)"/>
      <use xlink:href="#DejaVuSans-50" transform="translate(849.15625 0)"/>
      <use xlink:href="#DejaVuSans-48" transform="translate(946.5625 0)"/>
      <use xlink:href="#DejaVuSans-3" transform="translate(1008.09375 0)"/>
      <use xlink:href="#DejaVuSans-59" transform="translate(1039.875 0)"/>
      <use xlink:href="#DejaVuSans-44" transform="translate(1099.0625 0)"/>
      <use xlink:href="#DejaVuSans-4f" transform="translate(1160.34375 0)"/>
      <use xlink:href="#DejaVuSans-4c" transform="translate(1188.125 0)"/>
      <use xlink:href="#DejaVuSans-47" transform="translate(1215.90625 0)"/>
      <use xlink:href="#DejaVuSans-44" transform="translate(1279.390625 0)"/>
      <use xlink:href="#DejaVuSans-57" transform="translate(1340.671875 0)"/>
      <use xlink:href="#DejaVuSans-4c" transform="translate(1379.875 0)"/>
      <use xlink:href="#DejaVuSans-52" transform="translate(1407.65625 0)"/>
      <use xlink:href="#DejaVuSans-51" transform="translate(1468.84375 0)"/>
      <use xlink:href="#DejaVuSans-3" transform="translate(1532.21875 0)"/>
      <use xlink:href="#DejaVuSans-54" transform="translate(1564 0)"/>
      <use xlink:href="#DejaVuSans-58" transform="translate(1627.484375 0)"/>
      <use xlink:href="#DejaVuSans-48" transform="translate(1690.859375 0)"/>
      <use xlink:href="#DejaVuSans-55" transform="translate(1752.390625 0)"/>
      <use xlink:href="#DejaVuSans-4c" transform="translate(1793.5 0)"/>
      <use xlink:href="#DejaVuSans-48" transform="translate(1821.28125 0)"/>
      <use xlink:href="#DejaVuSans-56" transform="translate(1882.8125 0)"/>
      <use xlink:href="#DejaVuSans-c" transform="translate(1934.90625 0)"/>
     </g>
    </g>
   </g>
   <g id="matplotlib.axis_2">
    <g id="ytick_1">
     <g id="line2d_4">
      <path d="M 35.19625 288.912
L 449.57625 288.912
" clip-path="url(#p12d93640c7)" style="fill: none; stroke: #d8e0ea; stroke-opacity: 0.65; stroke-width: 0.8; stroke-linecap: square"/>
     </g>
     <g id="line2d_5">
      <defs>
       <path id="m61caef7bfc" d="M 0 0
L -3.5 0
" style="stroke: #000000; stroke-width: 0.8"/>
      </defs>
      <g>
       <use xlink:href="#m61caef7bfc" x="35.19625" y="288.912" style="stroke: #000000; stroke-width: 0.8"/>
      </g>
     </g>
     <g id="text_5">
      <!-- 0 -->
      <g transform="translate(21.1975 293.090711) scale(0.11 -0.11)">
       <use xlink:href="#DejaVuSans-13"/>
      </g>
     </g>
    </g>
    <g id="ytick_2">
     <g id="line2d_6">
      <path d="M 35.19625 250.131647
L 449.57625 250.131647
" clip-path="url(#p12d93640c7)" style="fill: none; stroke: #d8e0ea; stroke-opacity: 0.65; stroke-width: 0.8; stroke-linecap: square"/>
     </g>
     <g id="line2d_7">
      <g>
       <use xlink:href="#m61caef7bfc" x="35.19625" y="250.131647" style="stroke: #000000; stroke-width: 0.8"/>
      </g>
     </g>
     <g id="text_6">
      <!-- 50 -->
      <g transform="translate(14.19875 254.310358) scale(0.11 -0.11)">
       <defs>
        <path id="DejaVuSans-18" d="M 691 4666
L 3169 4666
L 3169 4134
L 1269 4134
L 1269 2991
Q 1406 3038 1543 3061
Q 1681 3084 1819 3084
Q 2600 3084 3056 2656
Q 3513 2228 3513 1497
Q 3513 744 3044 326
Q 2575 -91 1722 -91
Q 1428 -91 1123 -41
Q 819 9 494 109
L 494 744
Q 775 591 1075 516
Q 1375 441 1709 441
Q 2250 441 2565 725
Q 2881 1009 2881 1497
Q 2881 1984 2565 2268
Q 2250 2553 1709 2553
Q 1456 2553 1204 2497
Q 953 2441 691 2322
L 691 4666
z
" transform="scale(0.015625)"/>
       </defs>
       <use xlink:href="#DejaVuSans-18"/>
       <use xlink:href="#DejaVuSans-13" transform="translate(63.625 0)"/>
      </g>
     </g>
    </g>
    <g id="ytick_3">
     <g id="line2d_8">
      <path d="M 35.19625 211.351293
L 449.57625 211.351293
" clip-path="url(#p12d93640c7)" style="fill: none; stroke: #d8e0ea; stroke-opacity: 0.65; stroke-width: 0.8; stroke-linecap: square"/>
     </g>
     <g id="line2d_9">
      <g>
       <use xlink:href="#m61caef7bfc" x="35.19625" y="211.351293" style="stroke: #000000; stroke-width: 0.8"/>
      </g>
     </g>
     <g id="text_7">
      <!-- 100 -->
      <g transform="translate(7.2 215.530004) scale(0.11 -0.11)">
       <use xlink:href="#DejaVuSans-14"/>
       <use xlink:href="#DejaVuSans-13" transform="translate(63.625 0)"/>
       <use xlink:href="#DejaVuSans-13" transform="translate(127.25 0)"/>
      </g>
     </g>
    </g>
    <g id="ytick_4">
     <g id="line2d_10">
      <path d="M 35.19625 172.57094
L 449.57625 172.57094
" clip-path="url(#p12d93640c7)" style="fill: none; stroke: #d8e0ea; stroke-opacity: 0.65; stroke-width: 0.8; stroke-linecap: square"/>
     </g>
     <g id="line2d_11">
      <g>
       <use xlink:href="#m61caef7bfc" x="35.19625" y="172.57094" style="stroke: #000000; stroke-width: 0.8"/>
      </g>
     </g>
     <g id="text_8">
      <!-- 150 -->
      <g transform="translate(7.2 176.749651) scale(0.11 -0.11)">
       <use xlink:href="#DejaVuSans-14"/>
       <use xlink:href="#DejaVuSans-18" transform="translate(63.625 0)"/>
       <use xlink:href="#DejaVuSans-13" transform="translate(127.25 0)"/>
      </g>
     </g>
    </g>
    <g id="ytick_5">
     <g id="line2d_12">
      <path d="M 35.19625 133.790586
L 449.57625 133.790586
" clip-path="url(#p12d93640c7)" style="fill: none; stroke: #d8e0ea; stroke-opacity: 0.65; stroke-width: 0.8; stroke-linecap: square"/>
     </g>
     <g id="line2d_13">
      <g>
       <use xlink:href="#m61caef7bfc" x="35.19625" y="133.790586" style="stroke: #000000; stroke-width: 0.8"/>
      </g>
     </g>
     <g id="text_9">
      <!-- 200 -->
      <g transform="translate(7.2 137.969297) scale(0.11 -0.11)">
       <use xlink:href="#DejaVuSans-15"/>
       <use xlink:href="#DejaVuSans-13" transform="translate(63.625 0)"/>
       <use xlink:href="#DejaVuSans-13" transform="translate(127.25 0)"/>
      </g>
     </g>
    </g>
    <g id="ytick_6">
     <g id="line2d_14">
      <path d="M 35.19625 95.010233
L 449.57625 95.010233
" clip-path="url(#p12d93640c7)" style="fill: none; stroke: #d8e0ea; stroke-opacity: 0.65; stroke-width: 0.8; stroke-linecap: square"/>
     </g>
     <g id="line2d_15">
      <g>
       <use xlink:href="#m61caef7bfc" x="35.19625" y="95.010233" style="stroke: #000000; stroke-width: 0.8"/>
      </g>
     </g>
     <g id="text_10">
      <!-- 250 -->
      <g transform="translate(7.2 99.188944) scale(0.11 -0.11)">
       <use xlink:href="#DejaVuSans-15"/>
       <use xlink:href="#DejaVuSans-18" transform="translate(63.625 0)"/>
       <use xlink:href="#DejaVuSans-13" transform="translate(127.25 0)"/>
      </g>
     </g>
    </g>
   </g>
   <g id="patch_3">
    <path d="M 54.031705 288.912
L 98.09956 288.912
L 98.09956 140.77105
L 54.031705 140.77105
z
" clip-path="url(#p12d93640c7)" style="fill: #245a96"/>
   </g>
   <g id="patch_4">
    <path d="M 196.186078 288.912
L 240.253934 288.912
L 240.253934 139.995443
L 196.186078 139.995443
z
" clip-path="url(#p12d93640c7)" style="fill: #245a96"/>
   </g>
   <g id="patch_5">
    <path d="M 338.340452 288.912
L 382.408308 288.912
L 382.408308 144.649085
L 338.340452 144.649085
z
" clip-path="url(#p12d93640c7)" style="fill: #245a96"/>
   </g>
   <g id="patch_6">
    <path d="M 102.364192 288.912
L 146.432048 288.912
L 146.432048 202.044008
L 102.364192 202.044008
z
" clip-path="url(#p12d93640c7)" style="fill: #cc702e"/>
   </g>
   <g id="patch_7">
    <path d="M 244.518566 288.912
L 288.586422 288.912
L 288.586422 198.94158
L 244.518566 198.94158
z
" clip-path="url(#p12d93640c7)" style="fill: #cc702e"/>
   </g>
   <g id="patch_8">
    <path d="M 386.67294 288.912
L 430.740795 288.912
L 430.740795 202.819615
L 386.67294 202.819615
z
" clip-path="url(#p12d93640c7)" style="fill: #cc702e"/>
   </g>
   <g id="patch_9">
    <path d="M 35.19625 288.912
L 35.19625 90.899516
" style="fill: none; stroke: #000000; stroke-width: 0.8; stroke-linejoin: miter; stroke-linecap: square"/>
   </g>
   <g id="patch_10">
    <path d="M 35.19625 288.912
L 449.57625 288.912
" style="fill: none; stroke: #000000; stroke-width: 0.8; stroke-linejoin: miter; stroke-linecap: square"/>
   </g>
   <g id="text_11">
    <!-- 191 -->
    <g transform="translate(66.521883 134.368706) scale(0.1 -0.1)">
     <use xlink:href="#DejaVuSans-14"/>
     <use xlink:href="#DejaVuSans-1c" transform="translate(63.625 0)"/>
     <use xlink:href="#DejaVuSans-14" transform="translate(127.25 0)"/>
    </g>
   </g>
   <g id="text_12">
    <!-- 192 -->
    <g transform="translate(208.676256 133.593099) scale(0.1 -0.1)">
     <use xlink:href="#DejaVuSans-14"/>
     <use xlink:href="#DejaVuSans-1c" transform="translate(63.625 0)"/>
     <use xlink:href="#DejaVuSans-15" transform="translate(127.25 0)"/>
    </g>
   </g>
   <g id="text_13">
    <!-- 186 -->
    <g transform="translate(350.83063 138.246742) scale(0.1 -0.1)">
     <defs>
      <path id="DejaVuSans-1b" d="M 2034 2216
Q 1584 2216 1326 1975
Q 1069 1734 1069 1313
Q 1069 891 1326 650
Q 1584 409 2034 409
Q 2484 409 2743 651
Q 3003 894 3003 1313
Q 3003 1734 2745 1975
Q 2488 2216 2034 2216
z
M 1403 2484
Q 997 2584 770 2862
Q 544 3141 544 3541
Q 544 4100 942 4425
Q 1341 4750 2034 4750
Q 2731 4750 3128 4425
Q 3525 4100 3525 3541
Q 3525 3141 3298 2862
Q 3072 2584 2669 2484
Q 3125 2378 3379 2068
Q 3634 1759 3634 1313
Q 3634 634 3220 271
Q 2806 -91 2034 -91
Q 1263 -91 848 271
Q 434 634 434 1313
Q 434 1759 690 2068
Q 947 2378 1403 2484
z
M 1172 3481
Q 1172 3119 1398 2916
Q 1625 2713 2034 2713
Q 2441 2713 2670 2916
Q 2900 3119 2900 3481
Q 2900 3844 2670 4047
Q 2441 4250 2034 4250
Q 1625 4250 1398 4047
Q 1172 3844 1172 3481
z
" transform="scale(0.015625)"/>
      <path id="DejaVuSans-19" d="M 2113 2584
Q 1688 2584 1439 2293
Q 1191 2003 1191 1497
Q 1191 994 1439 701
Q 1688 409 2113 409
Q 2538 409 2786 701
Q 3034 994 3034 1497
Q 3034 2003 2786 2293
Q 2538 2584 2113 2584
z
M 3366 4563
L 3366 3988
Q 3128 4100 2886 4159
Q 2644 4219 2406 4219
Q 1781 4219 1451 3797
Q 1122 3375 1075 2522
Q 1259 2794 1537 2939
Q 1816 3084 2150 3084
Q 2853 3084 3261 2657
Q 3669 2231 3669 1497
Q 3669 778 3244 343
Q 2819 -91 2113 -91
Q 1303 -91 875 529
Q 447 1150 447 2328
Q 447 3434 972 4092
Q 1497 4750 2381 4750
Q 2619 4750 2861 4703
Q 3103 4656 3366 4563
z
" transform="scale(0.015625)"/>
     </defs>
     <use xlink:href="#DejaVuSans-14"/>
     <use xlink:href="#DejaVuSans-1b" transform="translate(63.625 0)"/>
     <use xlink:href="#DejaVuSans-19" transform="translate(127.25 0)"/>
    </g>
   </g>
   <g id="text_14">
    <!-- 112 -->
    <g transform="translate(114.85437 195.641665) scale(0.1 -0.1)">
     <use xlink:href="#DejaVuSans-14"/>
     <use xlink:href="#DejaVuSans-14" transform="translate(63.625 0)"/>
     <use xlink:href="#DejaVuSans-15" transform="translate(127.25 0)"/>
    </g>
   </g>
   <g id="text_15">
    <!-- 116 -->
    <g transform="translate(257.008744 192.539236) scale(0.1 -0.1)">
     <use xlink:href="#DejaVuSans-14"/>
     <use xlink:href="#DejaVuSans-14" transform="translate(63.625 0)"/>
     <use xlink:href="#DejaVuSans-19" transform="translate(127.25 0)"/>
    </g>
   </g>
   <g id="text_16">
    <!-- 111 -->
    <g transform="translate(399.163117 196.417272) scale(0.1 -0.1)">
     <use xlink:href="#DejaVuSans-14"/>
     <use xlink:href="#DejaVuSans-14" transform="translate(63.625 0)"/>
     <use xlink:href="#DejaVuSans-14" transform="translate(127.25 0)"/>
    </g>
   </g>
   <g id="text_17">
    <!-- Exact sets (out of 222 per seed) -->
    <g transform="translate(35.19625 76.899516) scale(0.132 -0.132)">
     <defs>
      <path id="DejaVuSans-Bold-28" d="M 588 4666
L 3834 4666
L 3834 3756
L 1791 3756
L 1791 2888
L 3713 2888
L 3713 1978
L 1791 1978
L 1791 909
L 3903 909
L 3903 0
L 588 0
L 588 4666
z
" transform="scale(0.015625)"/>
      <path id="DejaVuSans-Bold-5b" d="M 1422 1791
L 159 3500
L 1344 3500
L 2059 2463
L 2784 3500
L 3969 3500
L 2706 1797
L 4031 0
L 2847 0
L 2059 1106
L 1281 0
L 97 0
L 1422 1791
z
" transform="scale(0.015625)"/>
      <path id="DejaVuSans-Bold-44" d="M 2106 1575
Q 1756 1575 1579 1456
Q 1403 1338 1403 1106
Q 1403 894 1545 773
Q 1688 653 1941 653
Q 2256 653 2472 879
Q 2688 1106 2688 1447
L 2688 1575
L 2106 1575
z
M 3816 1997
L 3816 0
L 2688 0
L 2688 519
Q 2463 200 2181 54
Q 1900 -91 1497 -91
Q 953 -91 614 226
Q 275 544 275 1050
Q 275 1666 698 1953
Q 1122 2241 2028 2241
L 2688 2241
L 2688 2328
Q 2688 2594 2478 2717
Q 2269 2841 1825 2841
Q 1466 2841 1156 2769
Q 847 2697 581 2553
L 581 3406
Q 941 3494 1303 3539
Q 1666 3584 2028 3584
Q 2975 3584 3395 3211
Q 3816 2838 3816 1997
z
" transform="scale(0.015625)"/>
      <path id="DejaVuSans-Bold-46" d="M 3366 3391
L 3366 2478
Q 3138 2634 2908 2709
Q 2678 2784 2431 2784
Q 1963 2784 1702 2511
Q 1441 2238 1441 1747
Q 1441 1256 1702 982
Q 1963 709 2431 709
Q 2694 709 2930 787
Q 3166 866 3366 1019
L 3366 103
Q 3103 6 2833 -42
Q 2563 -91 2291 -91
Q 1344 -91 809 395
Q 275 881 275 1747
Q 275 2613 809 3098
Q 1344 3584 2291 3584
Q 2566 3584 2833 3536
Q 3100 3488 3366 3391
z
" transform="scale(0.015625)"/>
      <path id="DejaVuSans-Bold-57" d="M 1759 4494
L 1759 3500
L 2913 3500
L 2913 2700
L 1759 2700
L 1759 1216
Q 1759 972 1856 886
Q 1953 800 2241 800
L 2816 800
L 2816 0
L 1856 0
Q 1194 0 917 276
Q 641 553 641 1216
L 641 2700
L 84 2700
L 84 3500
L 641 3500
L 641 4494
L 1759 4494
z
" transform="scale(0.015625)"/>
      <path id="DejaVuSans-Bold-3" transform="scale(0.015625)"/>
      <path id="DejaVuSans-Bold-56" d="M 3272 3391
L 3272 2541
Q 2913 2691 2578 2766
Q 2244 2841 1947 2841
Q 1628 2841 1473 2761
Q 1319 2681 1319 2516
Q 1319 2381 1436 2309
Q 1553 2238 1856 2203
L 2053 2175
Q 2913 2066 3209 1816
Q 3506 1566 3506 1031
Q 3506 472 3093 190
Q 2681 -91 1863 -91
Q 1516 -91 1145 -36
Q 775 19 384 128
L 384 978
Q 719 816 1070 734
Q 1422 653 1784 653
Q 2113 653 2278 743
Q 2444 834 2444 1013
Q 2444 1163 2330 1236
Q 2216 1309 1875 1350
L 1678 1375
Q 931 1469 631 1722
Q 331 1975 331 2491
Q 331 3047 712 3315
Q 1094 3584 1881 3584
Q 2191 3584 2531 3537
Q 2872 3491 3272 3391
z
" transform="scale(0.015625)"/>
      <path id="DejaVuSans-Bold-48" d="M 4031 1759
L 4031 1441
L 1416 1441
Q 1456 1047 1700 850
Q 1944 653 2381 653
Q 2734 653 3104 758
Q 3475 863 3866 1075
L 3866 213
Q 3469 63 3072 -14
Q 2675 -91 2278 -91
Q 1328 -91 801 392
Q 275 875 275 1747
Q 275 2603 792 3093
Q 1309 3584 2216 3584
Q 3041 3584 3536 3087
Q 4031 2591 4031 1759
z
M 2881 2131
Q 2881 2450 2695 2645
Q 2509 2841 2209 2841
Q 1884 2841 1681 2658
Q 1478 2475 1428 2131
L 2881 2131
z
" transform="scale(0.015625)"/>
      <path id="DejaVuSans-Bold-b" d="M 2413 -844
L 1484 -844
Q 1006 -72 778 623
Q 550 1319 550 2003
Q 550 2688 779 3389
Q 1009 4091 1484 4856
L 2413 4856
Q 2013 4116 1813 3408
Q 1613 2700 1613 2009
Q 1613 1319 1811 609
Q 2009 -100 2413 -844
z
" transform="scale(0.015625)"/>
      <path id="DejaVuSans-Bold-52" d="M 2203 2784
Q 1831 2784 1636 2517
Q 1441 2250 1441 1747
Q 1441 1244 1636 976
Q 1831 709 2203 709
Q 2569 709 2762 976
Q 2956 1244 2956 1747
Q 2956 2250 2762 2517
Q 2569 2784 2203 2784
z
M 2203 3584
Q 3106 3584 3614 3096
Q 4122 2609 4122 1747
Q 4122 884 3614 396
Q 3106 -91 2203 -91
Q 1297 -91 786 396
Q 275 884 275 1747
Q 275 2609 786 3096
Q 1297 3584 2203 3584
z
" transform="scale(0.015625)"/>
      <path id="DejaVuSans-Bold-58" d="M 500 1363
L 500 3500
L 1625 3500
L 1625 3150
Q 1625 2866 1622 2436
Q 1619 2006 1619 1863
Q 1619 1441 1641 1255
Q 1663 1069 1716 984
Q 1784 875 1895 815
Q 2006 756 2150 756
Q 2500 756 2700 1025
Q 2900 1294 2900 1772
L 2900 3500
L 4019 3500
L 4019 0
L 2900 0
L 2900 506
Q 2647 200 2364 54
Q 2081 -91 1741 -91
Q 1134 -91 817 281
Q 500 653 500 1363
z
" transform="scale(0.015625)"/>
      <path id="DejaVuSans-Bold-49" d="M 2841 4863
L 2841 4128
L 2222 4128
Q 1984 4128 1890 4042
Q 1797 3956 1797 3744
L 1797 3500
L 2753 3500
L 2753 2700
L 1797 2700
L 1797 0
L 678 0
L 678 2700
L 122 2700
L 122 3500
L 678 3500
L 678 3744
Q 678 4316 997 4589
Q 1316 4863 1984 4863
L 2841 4863
z
" transform="scale(0.015625)"/>
      <path id="DejaVuSans-Bold-15" d="M 1844 884
L 3897 884
L 3897 0
L 506 0
L 506 884
L 2209 2388
Q 2438 2594 2547 2791
Q 2656 2988 2656 3200
Q 2656 3528 2436 3728
Q 2216 3928 1850 3928
Q 1569 3928 1234 3808
Q 900 3688 519 3450
L 519 4475
Q 925 4609 1322 4679
Q 1719 4750 2100 4750
Q 2938 4750 3402 4381
Q 3866 4013 3866 3353
Q 3866 2972 3669 2642
Q 3472 2313 2841 1759
L 1844 884
z
" transform="scale(0.015625)"/>
      <path id="DejaVuSans-Bold-53" d="M 1656 506
L 1656 -1331
L 538 -1331
L 538 3500
L 1656 3500
L 1656 2988
Q 1888 3294 2169 3439
Q 2450 3584 2816 3584
Q 3463 3584 3878 3070
Q 4294 2556 4294 1747
Q 4294 938 3878 423
Q 3463 -91 2816 -91
Q 2450 -91 2169 54
Q 1888 200 1656 506
z
M 2400 2772
Q 2041 2772 1848 2508
Q 1656 2244 1656 1747
Q 1656 1250 1848 986
Q 2041 722 2400 722
Q 2759 722 2948 984
Q 3138 1247 3138 1747
Q 3138 2247 2948 2509
Q 2759 2772 2400 2772
z
" transform="scale(0.015625)"/>
      <path id="DejaVuSans-Bold-55" d="M 3138 2547
Q 2991 2616 2845 2648
Q 2700 2681 2553 2681
Q 2122 2681 1889 2404
Q 1656 2128 1656 1613
L 1656 0
L 538 0
L 538 3500
L 1656 3500
L 1656 2925
Q 1872 3269 2151 3426
Q 2431 3584 2822 3584
Q 2878 3584 2943 3579
Q 3009 3575 3134 3559
L 3138 2547
z
" transform="scale(0.015625)"/>
      <path id="DejaVuSans-Bold-47" d="M 2919 2988
L 2919 4863
L 4044 4863
L 4044 0
L 2919 0
L 2919 506
Q 2688 197 2409 53
Q 2131 -91 1766 -91
Q 1119 -91 703 423
Q 288 938 288 1747
Q 288 2556 703 3070
Q 1119 3584 1766 3584
Q 2128 3584 2408 3439
Q 2688 3294 2919 2988
z
M 2181 722
Q 2541 722 2730 984
Q 2919 1247 2919 1747
Q 2919 2247 2730 2509
Q 2541 2772 2181 2772
Q 1825 2772 1636 2509
Q 1447 2247 1447 1747
Q 1447 1247 1636 984
Q 1825 722 2181 722
z
" transform="scale(0.015625)"/>
      <path id="DejaVuSans-Bold-c" d="M 513 -844
Q 913 -100 1113 609
Q 1313 1319 1313 2009
Q 1313 2700 1113 3408
Q 913 4116 513 4856
L 1441 4856
Q 1916 4091 2145 3389
Q 2375 2688 2375 2003
Q 2375 1319 2147 623
Q 1919 -72 1441 -844
L 513 -844
z
" transform="scale(0.015625)"/>
     </defs>
     <use xlink:href="#DejaVuSans-Bold-28"/>
     <use xlink:href="#DejaVuSans-Bold-5b" transform="translate(68.3125 0)"/>
     <use xlink:href="#DejaVuSans-Bold-44" transform="translate(132.8125 0)"/>
     <use xlink:href="#DejaVuSans-Bold-46" transform="translate(200.296875 0)"/>
     <use xlink:href="#DejaVuSans-Bold-57" transform="translate(259.578125 0)"/>
     <use xlink:href="#DejaVuSans-Bold-3" transform="translate(307.375 0)"/>
     <use xlink:href="#DejaVuSans-Bold-56" transform="translate(342.1875 0)"/>
     <use xlink:href="#DejaVuSans-Bold-48" transform="translate(401.703125 0)"/>
     <use xlink:href="#DejaVuSans-Bold-57" transform="translate(469.53125 0)"/>
     <use xlink:href="#DejaVuSans-Bold-56" transform="translate(517.328125 0)"/>
     <use xlink:href="#DejaVuSans-Bold-3" transform="translate(576.84375 0)"/>
     <use xlink:href="#DejaVuSans-Bold-b" transform="translate(611.65625 0)"/>
     <use xlink:href="#DejaVuSans-Bold-52" transform="translate(657.359375 0)"/>
     <use xlink:href="#DejaVuSans-Bold-58" transform="translate(726.0625 0)"/>
     <use xlink:href="#DejaVuSans-Bold-57" transform="translate(797.25 0)"/>
     <use xlink:href="#DejaVuSans-Bold-3" transform="translate(845.046875 0)"/>
     <use xlink:href="#DejaVuSans-Bold-52" transform="translate(879.859375 0)"/>
     <use xlink:href="#DejaVuSans-Bold-49" transform="translate(948.5625 0)"/>
     <use xlink:href="#DejaVuSans-Bold-3" transform="translate(992.0625 0)"/>
     <use xlink:href="#DejaVuSans-Bold-15" transform="translate(1026.875 0)"/>
     <use xlink:href="#DejaVuSans-Bold-15" transform="translate(1096.453125 0)"/>
     <use xlink:href="#DejaVuSans-Bold-15" transform="translate(1166.03125 0)"/>
     <use xlink:href="#DejaVuSans-Bold-3" transform="translate(1235.609375 0)"/>
     <use xlink:href="#DejaVuSans-Bold-53" transform="translate(1270.421875 0)"/>
     <use xlink:href="#DejaVuSans-Bold-48" transform="translate(1342 0)"/>
     <use xlink:href="#DejaVuSans-Bold-55" transform="translate(1409.828125 0)"/>
     <use xlink:href="#DejaVuSans-Bold-3" transform="translate(1459.140625 0)"/>
     <use xlink:href="#DejaVuSans-Bold-56" transform="translate(1493.953125 0)"/>
     <use xlink:href="#DejaVuSans-Bold-48" transform="translate(1553.46875 0)"/>
     <use xlink:href="#DejaVuSans-Bold-48" transform="translate(1621.296875 0)"/>
     <use xlink:href="#DejaVuSans-Bold-47" transform="translate(1689.125 0)"/>
     <use xlink:href="#DejaVuSans-Bold-c" transform="translate(1760.703125 0)"/>
    </g>
   </g>
   <g id="legend_1">
    <g id="patch_11">
     <path d="M 43.29625 265.149187
L 61.29625 265.149187
L 61.29625 258.849187
L 43.29625 258.849187
z
" style="fill: #245a96"/>
    </g>
    <g id="text_18">
     <!-- Composed candidates -->
     <g transform="translate(68.49625 265.149187) scale(0.09 -0.09)">
      <defs>
       <path id="DejaVuSans-26" d="M 4122 4306
L 4122 3641
Q 3803 3938 3442 4084
Q 3081 4231 2675 4231
Q 1875 4231 1450 3742
Q 1025 3253 1025 2328
Q 1025 1406 1450 917
Q 1875 428 2675 428
Q 3081 428 3442 575
Q 3803 722 4122 1019
L 4122 359
Q 3791 134 3420 21
Q 3050 -91 2638 -91
Q 1578 -91 968 557
Q 359 1206 359 2328
Q 359 3453 968 4101
Q 1578 4750 2638 4750
Q 3056 4750 3426 4639
Q 3797 4528 4122 4306
z
" transform="scale(0.015625)"/>
       <path id="DejaVuSans-53" d="M 1159 525
L 1159 -1331
L 581 -1331
L 581 3500
L 1159 3500
L 1159 2969
Q 1341 3281 1617 3432
Q 1894 3584 2278 3584
Q 2916 3584 3314 3078
Q 3713 2572 3713 1747
Q 3713 922 3314 415
Q 2916 -91 2278 -91
Q 1894 -91 1617 61
Q 1341 213 1159 525
z
M 3116 1747
Q 3116 2381 2855 2742
Q 2594 3103 2138 3103
Q 1681 3103 1420 2742
Q 1159 2381 1159 1747
Q 1159 1113 1420 752
Q 1681 391 2138 391
Q 2594 391 2855 752
Q 3116 1113 3116 1747
z
" transform="scale(0.015625)"/>
       <path id="DejaVuSans-46" d="M 3122 3366
L 3122 2828
Q 2878 2963 2633 3030
Q 2388 3097 2138 3097
Q 1578 3097 1268 2742
Q 959 2388 959 1747
Q 959 1106 1268 751
Q 1578 397 2138 397
Q 2388 397 2633 464
Q 2878 531 3122 666
L 3122 134
Q 2881 22 2623 -34
Q 2366 -91 2075 -91
Q 1284 -91 818 406
Q 353 903 353 1747
Q 353 2603 823 3093
Q 1294 3584 2113 3584
Q 2378 3584 2631 3529
Q 2884 3475 3122 3366
z
" transform="scale(0.015625)"/>
      </defs>
      <use xlink:href="#DejaVuSans-26"/>
      <use xlink:href="#DejaVuSans-52" transform="translate(69.828125 0)"/>
      <use xlink:href="#DejaVuSans-50" transform="translate(131.015625 0)"/>
      <use xlink:href="#DejaVuSans-53" transform="translate(228.421875 0)"/>
      <use xlink:href="#DejaVuSans-52" transform="translate(291.90625 0)"/>
      <use xlink:href="#DejaVuSans-56" transform="translate(353.09375 0)"/>
      <use xlink:href="#DejaVuSans-48" transform="translate(405.1875 0)"/>
      <use xlink:href="#DejaVuSans-47" transform="translate(466.71875 0)"/>
      <use xlink:href="#DejaVuSans-3" transform="translate(530.203125 0)"/>
      <use xlink:href="#DejaVuSans-46" transform="translate(561.984375 0)"/>
      <use xlink:href="#DejaVuSans-44" transform="translate(616.96875 0)"/>
      <use xlink:href="#DejaVuSans-51" transform="translate(678.25 0)"/>
      <use xlink:href="#DejaVuSans-47" transform="translate(741.625 0)"/>
      <use xlink:href="#DejaVuSans-4c" transform="translate(805.109375 0)"/>
      <use xlink:href="#DejaVuSans-47" transform="translate(832.890625 0)"/>
      <use xlink:href="#DejaVuSans-44" transform="translate(896.375 0)"/>
      <use xlink:href="#DejaVuSans-57" transform="translate(957.65625 0)"/>
      <use xlink:href="#DejaVuSans-48" transform="translate(996.859375 0)"/>
      <use xlink:href="#DejaVuSans-56" transform="translate(1058.390625 0)"/>
     </g>
    </g>
    <g id="patch_12">
     <path d="M 43.29625 278.649891
L 61.29625 278.649891
L 61.29625 272.349891
L 43.29625 272.349891
z
" style="fill: #cc702e"/>
    </g>
    <g id="text_19">
     <!-- Direct head, z &gt; 0 -->
     <g transform="translate(68.49625 278.649891) scale(0.09 -0.09)">
      <defs>
       <path id="DejaVuSans-27" d="M 1259 4147
L 1259 519
L 2022 519
Q 2988 519 3436 956
Q 3884 1394 3884 2338
Q 3884 3275 3436 3711
Q 2988 4147 2022 4147
L 1259 4147
z
M 628 4666
L 1925 4666
Q 3281 4666 3915 4102
Q 4550 3538 4550 2338
Q 4550 1131 3912 565
Q 3275 0 1925 0
L 628 0
L 628 4666
z
" transform="scale(0.015625)"/>
       <path id="DejaVuSans-4b" d="M 3513 2113
L 3513 0
L 2938 0
L 2938 2094
Q 2938 2591 2744 2837
Q 2550 3084 2163 3084
Q 1697 3084 1428 2787
Q 1159 2491 1159 1978
L 1159 0
L 581 0
L 581 4863
L 1159 4863
L 1159 2956
Q 1366 3272 1645 3428
Q 1925 3584 2291 3584
Q 2894 3584 3203 3211
Q 3513 2838 3513 2113
z
" transform="scale(0.015625)"/>
       <path id="DejaVuSans-f" d="M 750 794
L 1409 794
L 1409 256
L 897 -744
L 494 -744
L 750 256
L 750 794
z
" transform="scale(0.015625)"/>
       <path id="DejaVuSans-5d" d="M 353 3500
L 3084 3500
L 3084 2975
L 922 459
L 3084 459
L 3084 0
L 275 0
L 275 525
L 2438 3041
L 353 3041
L 353 3500
z
" transform="scale(0.015625)"/>
       <path id="DejaVuSans-21" d="M 678 3150
L 678 3719
L 4684 2266
L 4684 1747
L 678 294
L 678 863
L 3897 2003
L 678 3150
z
" transform="scale(0.015625)"/>
      </defs>
      <use xlink:href="#DejaVuSans-27"/>
      <use xlink:href="#DejaVuSans-4c" transform="translate(77 0)"/>
      <use xlink:href="#DejaVuSans-55" transform="translate(104.78125 0)"/>
      <use xlink:href="#DejaVuSans-48" transform="translate(143.6875 0)"/>
      <use xlink:href="#DejaVuSans-46" transform="translate(205.21875 0)"/>
      <use xlink:href="#DejaVuSans-57" transform="translate(260.203125 0)"/>
      <use xlink:href="#DejaVuSans-3" transform="translate(299.40625 0)"/>
      <use xlink:href="#DejaVuSans-4b" transform="translate(331.1875 0)"/>
      <use xlink:href="#DejaVuSans-48" transform="translate(394.5625 0)"/>
      <use xlink:href="#DejaVuSans-44" transform="translate(456.09375 0)"/>
      <use xlink:href="#DejaVuSans-47" transform="translate(517.375 0)"/>
      <use xlink:href="#DejaVuSans-f" transform="translate(580.859375 0)"/>
      <use xlink:href="#DejaVuSans-3" transform="translate(612.640625 0)"/>
      <use xlink:href="#DejaVuSans-5d" transform="translate(644.421875 0)"/>
      <use xlink:href="#DejaVuSans-3" transform="translate(696.90625 0)"/>
      <use xlink:href="#DejaVuSans-21" transform="translate(728.6875 0)"/>
      <use xlink:href="#DejaVuSans-3" transform="translate(812.484375 0)"/>
      <use xlink:href="#DejaVuSans-13" transform="translate(844.265625 0)"/>
     </g>
    </g>
   </g>
  </g>
  <g id="axes_2">
   <g id="patch_13">
    <path d="M 490.05625 288.912
L 904.43625 288.912
L 904.43625 90.899516
L 490.05625 90.899516
z
" style="fill: #f7f9fc"/>
   </g>
   <g id="matplotlib.axis_3">
    <g id="xtick_4">
     <g id="line2d_16">
      <g>
       <use xlink:href="#m5a3cc5bfc1" x="555.091876" y="288.912" style="stroke: #000000; stroke-width: 0.8"/>
      </g>
     </g>
     <g id="text_20">
      <!-- 1729 -->
      <g transform="translate(541.094376 304.269422) scale(0.11 -0.11)">
       <use xlink:href="#DejaVuSans-14"/>
       <use xlink:href="#DejaVuSans-1a" transform="translate(63.625 0)"/>
       <use xlink:href="#DejaVuSans-15" transform="translate(127.25 0)"/>
       <use xlink:href="#DejaVuSans-1c" transform="translate(190.875 0)"/>
      </g>
     </g>
    </g>
    <g id="xtick_5">
     <g id="line2d_17">
      <g>
       <use xlink:href="#m5a3cc5bfc1" x="697.24625" y="288.912" style="stroke: #000000; stroke-width: 0.8"/>
      </g>
     </g>
     <g id="text_21">
      <!-- 1730 -->
      <g transform="translate(683.24875 304.269422) scale(0.11 -0.11)">
       <use xlink:href="#DejaVuSans-14"/>
       <use xlink:href="#DejaVuSans-1a" transform="translate(63.625 0)"/>
       <use xlink:href="#DejaVuSans-16" transform="translate(127.25 0)"/>
       <use xlink:href="#DejaVuSans-13" transform="translate(190.875 0)"/>
      </g>
     </g>
    </g>
    <g id="xtick_6">
     <g id="line2d_18">
      <g>
       <use xlink:href="#m5a3cc5bfc1" x="839.400624" y="288.912" style="stroke: #000000; stroke-width: 0.8"/>
      </g>
     </g>
     <g id="text_22">
      <!-- 1731 -->
      <g transform="translate(825.403124 304.269422) scale(0.11 -0.11)">
       <use xlink:href="#DejaVuSans-14"/>
       <use xlink:href="#DejaVuSans-1a" transform="translate(63.625 0)"/>
       <use xlink:href="#DejaVuSans-16" transform="translate(127.25 0)"/>
       <use xlink:href="#DejaVuSans-14" transform="translate(190.875 0)"/>
      </g>
     </g>
    </g>
    <g id="text_23">
     <!-- Training seed (same validation queries) -->
     <g transform="translate(588.680547 319.270281) scale(0.11 -0.11)">
      <use xlink:href="#DejaVuSans-37"/>
      <use xlink:href="#DejaVuSans-55" transform="translate(46.375 0)"/>
      <use xlink:href="#DejaVuSans-44" transform="translate(87.484375 0)"/>
      <use xlink:href="#DejaVuSans-4c" transform="translate(148.765625 0)"/>
      <use xlink:href="#DejaVuSans-51" transform="translate(176.546875 0)"/>
      <use xlink:href="#DejaVuSans-4c" transform="translate(239.921875 0)"/>
      <use xlink:href="#DejaVuSans-51" transform="translate(267.703125 0)"/>
      <use xlink:href="#DejaVuSans-4a" transform="translate(331.078125 0)"/>
      <use xlink:href="#DejaVuSans-3" transform="translate(394.5625 0)"/>
      <use xlink:href="#DejaVuSans-56" transform="translate(426.34375 0)"/>
      <use xlink:href="#DejaVuSans-48" transform="translate(478.4375 0)"/>
      <use xlink:href="#DejaVuSans-48" transform="translate(539.96875 0)"/>
      <use xlink:href="#DejaVuSans-47" transform="translate(601.5 0)"/>
      <use xlink:href="#DejaVuSans-3" transform="translate(664.984375 0)"/>
      <use xlink:href="#DejaVuSans-b" transform="translate(696.765625 0)"/>
      <use xlink:href="#DejaVuSans-56" transform="translate(735.78125 0)"/>
      <use xlink:href="#DejaVuSans-44" transform="translate(787.875 0)"/>
      <use xlink:href="#DejaVuSans-50" transform="translate(849.15625 0)"/>
      <use xlink:href="#DejaVuSans-48" transform="translate(946.5625 0)"/>
      <use xlink:href="#DejaVuSans-3" transform="translate(1008.09375 0)"/>
      <use xlink:href="#DejaVuSans-59" transform="translate(1039.875 0)"/>
      <use xlink:href="#DejaVuSans-44" transform="translate(1099.0625 0)"/>
      <use xlink:href="#DejaVuSans-4f" transform="translate(1160.34375 0)"/>
      <use xlink:href="#DejaVuSans-4c" transform="translate(1188.125 0)"/>
      <use xlink:href="#DejaVuSans-47" transform="translate(1215.90625 0)"/>
      <use xlink:href="#DejaVuSans-44" transform="translate(1279.390625 0)"/>
      <use xlink:href="#DejaVuSans-57" transform="translate(1340.671875 0)"/>
      <use xlink:href="#DejaVuSans-4c" transform="translate(1379.875 0)"/>
      <use xlink:href="#DejaVuSans-52" transform="translate(1407.65625 0)"/>
      <use xlink:href="#DejaVuSans-51" transform="translate(1468.84375 0)"/>
      <use xlink:href="#DejaVuSans-3" transform="translate(1532.21875 0)"/>
      <use xlink:href="#DejaVuSans-54" transform="translate(1564 0)"/>
      <use xlink:href="#DejaVuSans-58" transform="translate(1627.484375 0)"/>
      <use xlink:href="#DejaVuSans-48" transform="translate(1690.859375 0)"/>
      <use xlink:href="#DejaVuSans-55" transform="translate(1752.390625 0)"/>
      <use xlink:href="#DejaVuSans-4c" transform="translate(1793.5 0)"/>
      <use xlink:href="#DejaVuSans-48" transform="translate(1821.28125 0)"/>
      <use xlink:href="#DejaVuSans-56" transform="translate(1882.8125 0)"/>
      <use xlink:href="#DejaVuSans-c" transform="translate(1934.90625 0)"/>
     </g>
    </g>
   </g>
   <g id="matplotlib.axis_4">
    <g id="ytick_7">
     <g id="line2d_19">
      <path d="M 490.05625 288.912
L 904.43625 288.912
" clip-path="url(#p51756b415b)" style="fill: none; stroke: #d8e0ea; stroke-opacity: 0.65; stroke-width: 0.8; stroke-linecap: square"/>
     </g>
     <g id="line2d_20">
      <g>
       <use xlink:href="#m61caef7bfc" x="490.05625" y="288.912" style="stroke: #000000; stroke-width: 0.8"/>
      </g>
     </g>
     <g id="text_24">
      <!-- 0 -->
      <g transform="translate(476.0575 293.090711) scale(0.11 -0.11)">
       <use xlink:href="#DejaVuSans-13"/>
      </g>
     </g>
    </g>
    <g id="ytick_8">
     <g id="line2d_21">
      <path d="M 490.05625 254.475046
L 904.43625 254.475046
" clip-path="url(#p51756b415b)" style="fill: none; stroke: #d8e0ea; stroke-opacity: 0.65; stroke-width: 0.8; stroke-linecap: square"/>
     </g>
     <g id="line2d_22">
      <g>
       <use xlink:href="#m61caef7bfc" x="490.05625" y="254.475046" style="stroke: #000000; stroke-width: 0.8"/>
      </g>
     </g>
     <g id="text_25">
      <!-- 20 -->
      <g transform="translate(469.05875 258.653757) scale(0.11 -0.11)">
       <use xlink:href="#DejaVuSans-15"/>
       <use xlink:href="#DejaVuSans-13" transform="translate(63.625 0)"/>
      </g>
     </g>
    </g>
    <g id="ytick_9">
     <g id="line2d_23">
      <path d="M 490.05625 220.038092
L 904.43625 220.038092
" clip-path="url(#p51756b415b)" style="fill: none; stroke: #d8e0ea; stroke-opacity: 0.65; stroke-width: 0.8; stroke-linecap: square"/>
     </g>
     <g id="line2d_24">
      <g>
       <use xlink:href="#m61caef7bfc" x="490.05625" y="220.038092" style="stroke: #000000; stroke-width: 0.8"/>
      </g>
     </g>
     <g id="text_26">
      <!-- 40 -->
      <g transform="translate(469.05875 224.216803) scale(0.11 -0.11)">
       <defs>
        <path id="DejaVuSans-17" d="M 2419 4116
L 825 1625
L 2419 1625
L 2419 4116
z
M 2253 4666
L 3047 4666
L 3047 1625
L 3713 1625
L 3713 1100
L 3047 1100
L 3047 0
L 2419 0
L 2419 1100
L 313 1100
L 313 1709
L 2253 4666
z
" transform="scale(0.015625)"/>
       </defs>
       <use xlink:href="#DejaVuSans-17"/>
       <use xlink:href="#DejaVuSans-13" transform="translate(63.625 0)"/>
      </g>
     </g>
    </g>
    <g id="ytick_10">
     <g id="line2d_25">
      <path d="M 490.05625 185.601139
L 904.43625 185.601139
" clip-path="url(#p51756b415b)" style="fill: none; stroke: #d8e0ea; stroke-opacity: 0.65; stroke-width: 0.8; stroke-linecap: square"/>
     </g>
     <g id="line2d_26">
      <g>
       <use xlink:href="#m61caef7bfc" x="490.05625" y="185.601139" style="stroke: #000000; stroke-width: 0.8"/>
      </g>
     </g>
     <g id="text_27">
      <!-- 60 -->
      <g transform="translate(469.05875 189.77985) scale(0.11 -0.11)">
       <use xlink:href="#DejaVuSans-19"/>
       <use xlink:href="#DejaVuSans-13" transform="translate(63.625 0)"/>
      </g>
     </g>
    </g>
    <g id="ytick_11">
     <g id="line2d_27">
      <path d="M 490.05625 151.164185
L 904.43625 151.164185
" clip-path="url(#p51756b415b)" style="fill: none; stroke: #d8e0ea; stroke-opacity: 0.65; stroke-width: 0.8; stroke-linecap: square"/>
     </g>
     <g id="line2d_28">
      <g>
       <use xlink:href="#m61caef7bfc" x="490.05625" y="151.164185" style="stroke: #000000; stroke-width: 0.8"/>
      </g>
     </g>
     <g id="text_28">
      <!-- 80 -->
      <g transform="translate(469.05875 155.342896) scale(0.11 -0.11)">
       <use xlink:href="#DejaVuSans-1b"/>
       <use xlink:href="#DejaVuSans-13" transform="translate(63.625 0)"/>
      </g>
     </g>
    </g>
    <g id="ytick_12">
     <g id="line2d_29">
      <path d="M 490.05625 116.727231
L 904.43625 116.727231
" clip-path="url(#p51756b415b)" style="fill: none; stroke: #d8e0ea; stroke-opacity: 0.65; stroke-width: 0.8; stroke-linecap: square"/>
     </g>
     <g id="line2d_30">
      <g>
       <use xlink:href="#m61caef7bfc" x="490.05625" y="116.727231" style="stroke: #000000; stroke-width: 0.8"/>
      </g>
     </g>
     <g id="text_29">
      <!-- 100 -->
      <g transform="translate(462.06 120.905942) scale(0.11 -0.11)">
       <use xlink:href="#DejaVuSans-14"/>
       <use xlink:href="#DejaVuSans-13" transform="translate(63.625 0)"/>
       <use xlink:href="#DejaVuSans-13" transform="translate(127.25 0)"/>
      </g>
     </g>
    </g>
   </g>
   <g id="patch_14">
    <path d="M 508.891705 288.912
L 552.95956 288.912
L 552.95956 123.108286
L 508.891705 123.108286
z
" clip-path="url(#p51756b415b)" style="fill: #245a96"/>
   </g>
   <g id="patch_15">
    <path d="M 651.046078 288.912
L 695.113934 288.912
L 695.113934 121.360513
L 651.046078 121.360513
z
" clip-path="url(#p51756b415b)" style="fill: #245a96"/>
   </g>
   <g id="patch_16">
    <path d="M 793.200452 288.912
L 837.268308 288.912
L 837.268308 122.812881
L 793.200452 122.812881
z
" clip-path="url(#p51756b415b)" style="fill: #245a96"/>
   </g>
   <g id="patch_17">
    <path d="M 557.224192 288.912
L 601.292048 288.912
L 601.292048 118.384767
L 557.224192 118.384767
z
" clip-path="url(#p51756b415b)" style="fill: #cc702e"/>
   </g>
   <g id="patch_18">
    <path d="M 699.378566 288.912
L 743.446422 288.912
L 743.446422 118.376693
L 699.378566 118.376693
z
" clip-path="url(#p51756b415b)" style="fill: #cc702e"/>
   </g>
   <g id="patch_19">
    <path d="M 841.53294 288.912
L 885.600795 288.912
L 885.600795 118.799699
L 841.53294 118.799699
z
" clip-path="url(#p51756b415b)" style="fill: #cc702e"/>
   </g>
   <g id="patch_20">
    <path d="M 490.05625 288.912
L 490.05625 90.899516
" style="fill: none; stroke: #000000; stroke-width: 0.8; stroke-linejoin: miter; stroke-linecap: square"/>
   </g>
   <g id="patch_21">
    <path d="M 490.05625 288.912
L 904.43625 288.912
" style="fill: none; stroke: #000000; stroke-width: 0.8; stroke-linejoin: miter; stroke-linecap: square"/>
   </g>
   <g id="text_30">
    <!-- 96.29 -->
    <g transform="translate(516.61157 116.705942) scale(0.1 -0.1)">
     <defs>
      <path id="DejaVuSans-11" d="M 684 794
L 1344 794
L 1344 0
L 684 0
L 684 794
z
" transform="scale(0.015625)"/>
     </defs>
     <use xlink:href="#DejaVuSans-1c"/>
     <use xlink:href="#DejaVuSans-19" transform="translate(63.625 0)"/>
     <use xlink:href="#DejaVuSans-11" transform="translate(127.25 0)"/>
     <use xlink:href="#DejaVuSans-15" transform="translate(159.03125 0)"/>
     <use xlink:href="#DejaVuSans-1c" transform="translate(222.65625 0)"/>
    </g>
   </g>
   <g id="text_31">
    <!-- 97.31 -->
    <g transform="translate(658.765944 114.958169) scale(0.1 -0.1)">
     <use xlink:href="#DejaVuSans-1c"/>
     <use xlink:href="#DejaVuSans-1a" transform="translate(63.625 0)"/>
     <use xlink:href="#DejaVuSans-11" transform="translate(127.25 0)"/>
     <use xlink:href="#DejaVuSans-16" transform="translate(159.03125 0)"/>
     <use xlink:href="#DejaVuSans-14" transform="translate(222.65625 0)"/>
    </g>
   </g>
   <g id="text_32">
    <!-- 96.47 -->
    <g transform="translate(800.920318 116.410537) scale(0.1 -0.1)">
     <use xlink:href="#DejaVuSans-1c"/>
     <use xlink:href="#DejaVuSans-19" transform="translate(63.625 0)"/>
     <use xlink:href="#DejaVuSans-11" transform="translate(127.25 0)"/>
     <use xlink:href="#DejaVuSans-17" transform="translate(159.03125 0)"/>
     <use xlink:href="#DejaVuSans-1a" transform="translate(222.65625 0)"/>
    </g>
   </g>
   <g id="text_33">
    <!-- 99.04 -->
    <g transform="translate(564.944057 111.982423) scale(0.1 -0.1)">
     <use xlink:href="#DejaVuSans-1c"/>
     <use xlink:href="#DejaVuSans-1c" transform="translate(63.625 0)"/>
     <use xlink:href="#DejaVuSans-11" transform="translate(127.25 0)"/>
     <use xlink:href="#DejaVuSans-13" transform="translate(159.03125 0)"/>
     <use xlink:href="#DejaVuSans-17" transform="translate(222.65625 0)"/>
    </g>
   </g>
   <g id="text_34">
    <!-- 99.04 -->
    <g transform="translate(707.098431 111.97435) scale(0.1 -0.1)">
     <use xlink:href="#DejaVuSans-1c"/>
     <use xlink:href="#DejaVuSans-1c" transform="translate(63.625 0)"/>
     <use xlink:href="#DejaVuSans-11" transform="translate(127.25 0)"/>
     <use xlink:href="#DejaVuSans-13" transform="translate(159.03125 0)"/>
     <use xlink:href="#DejaVuSans-17" transform="translate(222.65625 0)"/>
    </g>
   </g>
   <g id="text_35">
    <!-- 98.80 -->
    <g transform="translate(849.252805 112.397356) scale(0.1 -0.1)">
     <use xlink:href="#DejaVuSans-1c"/>
     <use xlink:href="#DejaVuSans-1b" transform="translate(63.625 0)"/>
     <use xlink:href="#DejaVuSans-11" transform="translate(127.25 0)"/>
     <use xlink:href="#DejaVuSans-1b" transform="translate(159.03125 0)"/>
     <use xlink:href="#DejaVuSans-13" transform="translate(222.65625 0)"/>
    </g>
   </g>
   <g id="text_36">
    <!-- Macro F1 (%) -->
    <g transform="translate(490.05625 76.899516) scale(0.132 -0.132)">
     <defs>
      <path id="DejaVuSans-Bold-30" d="M 588 4666
L 2119 4666
L 3181 2169
L 4250 4666
L 5778 4666
L 5778 0
L 4641 0
L 4641 3413
L 3566 897
L 2803 897
L 1728 3413
L 1728 0
L 588 0
L 588 4666
z
" transform="scale(0.015625)"/>
      <path id="DejaVuSans-Bold-29" d="M 588 4666
L 3834 4666
L 3834 3756
L 1791 3756
L 1791 2888
L 3713 2888
L 3713 1978
L 1791 1978
L 1791 0
L 588 0
L 588 4666
z
" transform="scale(0.015625)"/>
      <path id="DejaVuSans-Bold-14" d="M 750 831
L 1813 831
L 1813 3847
L 722 3622
L 722 4441
L 1806 4666
L 2950 4666
L 2950 831
L 4013 831
L 4013 0
L 750 0
L 750 831
z
" transform="scale(0.015625)"/>
      <path id="DejaVuSans-Bold-8" d="M 4959 1925
Q 4738 1925 4616 1733
Q 4494 1541 4494 1184
Q 4494 825 4614 633
Q 4734 441 4959 441
Q 5184 441 5303 633
Q 5422 825 5422 1184
Q 5422 1541 5301 1733
Q 5181 1925 4959 1925
z
M 4959 2450
Q 5541 2450 5875 2112
Q 6209 1775 6209 1184
Q 6209 594 5875 251
Q 5541 -91 4959 -91
Q 4378 -91 4042 251
Q 3706 594 3706 1184
Q 3706 1772 4042 2111
Q 4378 2450 4959 2450
z
M 2094 -91
L 1403 -91
L 4319 4750
L 5013 4750
L 2094 -91
z
M 1453 4750
Q 2034 4750 2367 4411
Q 2700 4072 2700 3481
Q 2700 2891 2367 2550
Q 2034 2209 1453 2209
Q 872 2209 539 2550
Q 206 2891 206 3481
Q 206 4072 539 4411
Q 872 4750 1453 4750
z
M 1453 4225
Q 1228 4225 1106 4031
Q 984 3838 984 3481
Q 984 3122 1106 2926
Q 1228 2731 1453 2731
Q 1678 2731 1798 2926
Q 1919 3122 1919 3481
Q 1919 3838 1797 4031
Q 1675 4225 1453 4225
z
" transform="scale(0.015625)"/>
     </defs>
     <use xlink:href="#DejaVuSans-Bold-30"/>
     <use xlink:href="#DejaVuSans-Bold-44" transform="translate(99.515625 0)"/>
     <use xlink:href="#DejaVuSans-Bold-46" transform="translate(167 0)"/>
     <use xlink:href="#DejaVuSans-Bold-55" transform="translate(226.28125 0)"/>
     <use xlink:href="#DejaVuSans-Bold-52" transform="translate(275.59375 0)"/>
     <use xlink:href="#DejaVuSans-Bold-3" transform="translate(344.296875 0)"/>
     <use xlink:href="#DejaVuSans-Bold-29" transform="translate(379.109375 0)"/>
     <use xlink:href="#DejaVuSans-Bold-14" transform="translate(447.421875 0)"/>
     <use xlink:href="#DejaVuSans-Bold-3" transform="translate(517 0)"/>
     <use xlink:href="#DejaVuSans-Bold-b" transform="translate(551.8125 0)"/>
     <use xlink:href="#DejaVuSans-Bold-8" transform="translate(597.515625 0)"/>
     <use xlink:href="#DejaVuSans-Bold-c" transform="translate(697.71875 0)"/>
    </g>
   </g>
   <g id="legend_2">
    <g id="patch_22">
     <path d="M 498.15625 265.149187
L 516.15625 265.149187
L 516.15625 258.849187
L 498.15625 258.849187
z
" style="fill: #245a96"/>
    </g>
    <g id="text_37">
     <!-- Composed candidates -->
     <g transform="translate(523.35625 265.149187) scale(0.09 -0.09)">
      <use xlink:href="#DejaVuSans-26"/>
      <use xlink:href="#DejaVuSans-52" transform="translate(69.828125 0)"/>
      <use xlink:href="#DejaVuSans-50" transform="translate(131.015625 0)"/>
      <use xlink:href="#DejaVuSans-53" transform="translate(228.421875 0)"/>
      <use xlink:href="#DejaVuSans-52" transform="translate(291.90625 0)"/>
      <use xlink:href="#DejaVuSans-56" transform="translate(353.09375 0)"/>
      <use xlink:href="#DejaVuSans-48" transform="translate(405.1875 0)"/>
      <use xlink:href="#DejaVuSans-47" transform="translate(466.71875 0)"/>
      <use xlink:href="#DejaVuSans-3" transform="translate(530.203125 0)"/>
      <use xlink:href="#DejaVuSans-46" transform="translate(561.984375 0)"/>
      <use xlink:href="#DejaVuSans-44" transform="translate(616.96875 0)"/>
      <use xlink:href="#DejaVuSans-51" transform="translate(678.25 0)"/>
      <use xlink:href="#DejaVuSans-47" transform="translate(741.625 0)"/>
      <use xlink:href="#DejaVuSans-4c" transform="translate(805.109375 0)"/>
      <use xlink:href="#DejaVuSans-47" transform="translate(832.890625 0)"/>
      <use xlink:href="#DejaVuSans-44" transform="translate(896.375 0)"/>
      <use xlink:href="#DejaVuSans-57" transform="translate(957.65625 0)"/>
      <use xlink:href="#DejaVuSans-48" transform="translate(996.859375 0)"/>
      <use xlink:href="#DejaVuSans-56" transform="translate(1058.390625 0)"/>
     </g>
    </g>
    <g id="patch_23">
     <path d="M 498.15625 278.649891
L 516.15625 278.649891
L 516.15625 272.349891
L 498.15625 272.349891
z
" style="fill: #cc702e"/>
    </g>
    <g id="text_38">
     <!-- Direct head, z &gt; 0 -->
     <g transform="translate(523.35625 278.649891) scale(0.09 -0.09)">
      <use xlink:href="#DejaVuSans-27"/>
      <use xlink:href="#DejaVuSans-4c" transform="translate(77 0)"/>
      <use xlink:href="#DejaVuSans-55" transform="translate(104.78125 0)"/>
      <use xlink:href="#DejaVuSans-48" transform="translate(143.6875 0)"/>
      <use xlink:href="#DejaVuSans-46" transform="translate(205.21875 0)"/>
      <use xlink:href="#DejaVuSans-57" transform="translate(260.203125 0)"/>
      <use xlink:href="#DejaVuSans-3" transform="translate(299.40625 0)"/>
      <use xlink:href="#DejaVuSans-4b" transform="translate(331.1875 0)"/>
      <use xlink:href="#DejaVuSans-48" transform="translate(394.5625 0)"/>
      <use xlink:href="#DejaVuSans-44" transform="translate(456.09375 0)"/>
      <use xlink:href="#DejaVuSans-47" transform="translate(517.375 0)"/>
      <use xlink:href="#DejaVuSans-f" transform="translate(580.859375 0)"/>
      <use xlink:href="#DejaVuSans-3" transform="translate(612.640625 0)"/>
      <use xlink:href="#DejaVuSans-5d" transform="translate(644.421875 0)"/>
      <use xlink:href="#DejaVuSans-3" transform="translate(696.90625 0)"/>
      <use xlink:href="#DejaVuSans-21" transform="translate(728.6875 0)"/>
      <use xlink:href="#DejaVuSans-3" transform="translate(812.484375 0)"/>
      <use xlink:href="#DejaVuSans-13" transform="translate(844.265625 0)"/>
     </g>
    </g>
   </g>
  </g>
  <g id="text_39">
   <!-- Removing the candidate restriction: exact accuracy versus F1 -->
   <g transform="translate(193.460391 18.597656) scale(0.15 -0.15)">
    <defs>
     <path id="DejaVuSans-Bold-35" d="M 2297 2597
Q 2675 2597 2839 2737
Q 3003 2878 3003 3200
Q 3003 3519 2839 3656
Q 2675 3794 2297 3794
L 1791 3794
L 1791 2597
L 2297 2597
z
M 1791 1766
L 1791 0
L 588 0
L 588 4666
L 2425 4666
Q 3347 4666 3776 4356
Q 4206 4047 4206 3378
Q 4206 2916 3982 2619
Q 3759 2322 3309 2181
Q 3556 2125 3751 1926
Q 3947 1728 4147 1325
L 4800 0
L 3519 0
L 2950 1159
Q 2778 1509 2601 1637
Q 2425 1766 2131 1766
L 1791 1766
z
" transform="scale(0.015625)"/>
     <path id="DejaVuSans-Bold-50" d="M 3781 2919
Q 3994 3244 4286 3414
Q 4578 3584 4928 3584
Q 5531 3584 5847 3212
Q 6163 2841 6163 2131
L 6163 0
L 5038 0
L 5038 1825
Q 5041 1866 5042 1909
Q 5044 1953 5044 2034
Q 5044 2406 4934 2573
Q 4825 2741 4581 2741
Q 4263 2741 4089 2478
Q 3916 2216 3909 1719
L 3909 0
L 2784 0
L 2784 1825
Q 2784 2406 2684 2573
Q 2584 2741 2328 2741
Q 2006 2741 1831 2477
Q 1656 2213 1656 1722
L 1656 0
L 531 0
L 531 3500
L 1656 3500
L 1656 2988
Q 1863 3284 2130 3434
Q 2397 3584 2719 3584
Q 3081 3584 3359 3409
Q 3638 3234 3781 2919
z
" transform="scale(0.015625)"/>
     <path id="DejaVuSans-Bold-59" d="M 97 3500
L 1216 3500
L 2088 1081
L 2956 3500
L 4078 3500
L 2700 0
L 1472 0
L 97 3500
z
" transform="scale(0.015625)"/>
     <path id="DejaVuSans-Bold-4c" d="M 538 3500
L 1656 3500
L 1656 0
L 538 0
L 538 3500
z
M 538 4863
L 1656 4863
L 1656 3950
L 538 3950
L 538 4863
z
" transform="scale(0.015625)"/>
     <path id="DejaVuSans-Bold-51" d="M 4056 2131
L 4056 0
L 2931 0
L 2931 347
L 2931 1631
Q 2931 2084 2911 2256
Q 2891 2428 2841 2509
Q 2775 2619 2662 2680
Q 2550 2741 2406 2741
Q 2056 2741 1856 2470
Q 1656 2200 1656 1722
L 1656 0
L 538 0
L 538 3500
L 1656 3500
L 1656 2988
Q 1909 3294 2193 3439
Q 2478 3584 2822 3584
Q 3428 3584 3742 3212
Q 4056 2841 4056 2131
z
" transform="scale(0.015625)"/>
     <path id="DejaVuSans-Bold-4a" d="M 2919 594
Q 2688 288 2409 144
Q 2131 0 1766 0
Q 1125 0 706 504
Q 288 1009 288 1791
Q 288 2575 706 3076
Q 1125 3578 1766 3578
Q 2131 3578 2409 3434
Q 2688 3291 2919 2981
L 2919 3500
L 4044 3500
L 4044 353
Q 4044 -491 3511 -936
Q 2978 -1381 1966 -1381
Q 1638 -1381 1331 -1331
Q 1025 -1281 716 -1178
L 716 -306
Q 1009 -475 1290 -558
Q 1572 -641 1856 -641
Q 2406 -641 2662 -400
Q 2919 -159 2919 353
L 2919 594
z
M 2181 2772
Q 1834 2772 1640 2515
Q 1447 2259 1447 1791
Q 1447 1309 1634 1061
Q 1822 813 2181 813
Q 2531 813 2725 1069
Q 2919 1325 2919 1791
Q 2919 2259 2725 2515
Q 2531 2772 2181 2772
z
" transform="scale(0.015625)"/>
     <path id="DejaVuSans-Bold-4b" d="M 4056 2131
L 4056 0
L 2931 0
L 2931 347
L 2931 1625
Q 2931 2084 2911 2256
Q 2891 2428 2841 2509
Q 2775 2619 2662 2680
Q 2550 2741 2406 2741
Q 2056 2741 1856 2470
Q 1656 2200 1656 1722
L 1656 0
L 538 0
L 538 4863
L 1656 4863
L 1656 2988
Q 1909 3294 2193 3439
Q 2478 3584 2822 3584
Q 3428 3584 3742 3212
Q 4056 2841 4056 2131
z
" transform="scale(0.015625)"/>
     <path id="DejaVuSans-Bold-1d" d="M 716 3500
L 1844 3500
L 1844 2291
L 716 2291
L 716 3500
z
M 716 1209
L 1844 1209
L 1844 0
L 716 0
L 716 1209
z
" transform="scale(0.015625)"/>
     <path id="DejaVuSans-Bold-5c" d="M 78 3500
L 1197 3500
L 2138 1125
L 2938 3500
L 4056 3500
L 2584 -331
Q 2363 -916 2067 -1148
Q 1772 -1381 1288 -1381
L 641 -1381
L 641 -647
L 991 -647
Q 1275 -647 1404 -556
Q 1534 -466 1606 -231
L 1638 -134
L 78 3500
z
" transform="scale(0.015625)"/>
    </defs>
    <use xlink:href="#DejaVuSans-Bold-35"/>
    <use xlink:href="#DejaVuSans-Bold-48" transform="translate(77 0)"/>
    <use xlink:href="#DejaVuSans-Bold-50" transform="translate(144.828125 0)"/>
    <use xlink:href="#DejaVuSans-Bold-52" transform="translate(249.03125 0)"/>
    <use xlink:href="#DejaVuSans-Bold-59" transform="translate(317.734375 0)"/>
    <use xlink:href="#DejaVuSans-Bold-4c" transform="translate(382.921875 0)"/>
    <use xlink:href="#DejaVuSans-Bold-51" transform="translate(417.203125 0)"/>
    <use xlink:href="#DejaVuSans-Bold-4a" transform="translate(488.390625 0)"/>
    <use xlink:href="#DejaVuSans-Bold-3" transform="translate(559.96875 0)"/>
    <use xlink:href="#DejaVuSans-Bold-57" transform="translate(594.78125 0)"/>
    <use xlink:href="#DejaVuSans-Bold-4b" transform="translate(642.578125 0)"/>
    <use xlink:href="#DejaVuSans-Bold-48" transform="translate(713.765625 0)"/>
    <use xlink:href="#DejaVuSans-Bold-3" transform="translate(781.59375 0)"/>
    <use xlink:href="#DejaVuSans-Bold-46" transform="translate(816.40625 0)"/>
    <use xlink:href="#DejaVuSans-Bold-44" transform="translate(875.6875 0)"/>
    <use xlink:href="#DejaVuSans-Bold-51" transform="translate(943.171875 0)"/>
    <use xlink:href="#DejaVuSans-Bold-47" transform="translate(1014.359375 0)"/>
    <use xlink:href="#DejaVuSans-Bold-4c" transform="translate(1085.9375 0)"/>
    <use xlink:href="#DejaVuSans-Bold-47" transform="translate(1120.21875 0)"/>
    <use xlink:href="#DejaVuSans-Bold-44" transform="translate(1191.796875 0)"/>
    <use xlink:href="#DejaVuSans-Bold-57" transform="translate(1259.28125 0)"/>
    <use xlink:href="#DejaVuSans-Bold-48" transform="translate(1307.078125 0)"/>
    <use xlink:href="#DejaVuSans-Bold-3" transform="translate(1374.90625 0)"/>
    <use xlink:href="#DejaVuSans-Bold-55" transform="translate(1409.71875 0)"/>
    <use xlink:href="#DejaVuSans-Bold-48" transform="translate(1459.03125 0)"/>
    <use xlink:href="#DejaVuSans-Bold-56" transform="translate(1526.859375 0)"/>
    <use xlink:href="#DejaVuSans-Bold-57" transform="translate(1586.375 0)"/>
    <use xlink:href="#DejaVuSans-Bold-55" transform="translate(1634.171875 0)"/>
    <use xlink:href="#DejaVuSans-Bold-4c" transform="translate(1683.484375 0)"/>
    <use xlink:href="#DejaVuSans-Bold-46" transform="translate(1717.765625 0)"/>
    <use xlink:href="#DejaVuSans-Bold-57" transform="translate(1777.046875 0)"/>
    <use xlink:href="#DejaVuSans-Bold-4c" transform="translate(1824.84375 0)"/>
    <use xlink:href="#DejaVuSans-Bold-52" transform="translate(1859.125 0)"/>
    <use xlink:href="#DejaVuSans-Bold-51" transform="translate(1927.828125 0)"/>
    <use xlink:href="#DejaVuSans-Bold-1d" transform="translate(1999.015625 0)"/>
    <use xlink:href="#DejaVuSans-Bold-3" transform="translate(2039 0)"/>
    <use xlink:href="#DejaVuSans-Bold-48" transform="translate(2073.8125 0)"/>
    <use xlink:href="#DejaVuSans-Bold-5b" transform="translate(2141.640625 0)"/>
    <use xlink:href="#DejaVuSans-Bold-44" transform="translate(2206.140625 0)"/>
    <use xlink:href="#DejaVuSans-Bold-46" transform="translate(2273.625 0)"/>
    <use xlink:href="#DejaVuSans-Bold-57" transform="translate(2332.90625 0)"/>
    <use xlink:href="#DejaVuSans-Bold-3" transform="translate(2380.703125 0)"/>
    <use xlink:href="#DejaVuSans-Bold-44" transform="translate(2415.515625 0)"/>
    <use xlink:href="#DejaVuSans-Bold-46" transform="translate(2483 0)"/>
    <use xlink:href="#DejaVuSans-Bold-46" transform="translate(2542.28125 0)"/>
    <use xlink:href="#DejaVuSans-Bold-58" transform="translate(2601.5625 0)"/>
    <use xlink:href="#DejaVuSans-Bold-55" transform="translate(2672.75 0)"/>
    <use xlink:href="#DejaVuSans-Bold-44" transform="translate(2722.0625 0)"/>
    <use xlink:href="#DejaVuSans-Bold-46" transform="translate(2789.546875 0)"/>
    <use xlink:href="#DejaVuSans-Bold-5c" transform="translate(2848.828125 0)"/>
    <use xlink:href="#DejaVuSans-Bold-3" transform="translate(2914.015625 0)"/>
    <use xlink:href="#DejaVuSans-Bold-59" transform="translate(2948.828125 0)"/>
    <use xlink:href="#DejaVuSans-Bold-48" transform="translate(3014.015625 0)"/>
    <use xlink:href="#DejaVuSans-Bold-55" transform="translate(3081.84375 0)"/>
    <use xlink:href="#DejaVuSans-Bold-56" transform="translate(3131.15625 0)"/>
    <use xlink:href="#DejaVuSans-Bold-58" transform="translate(3190.671875 0)"/>
    <use xlink:href="#DejaVuSans-Bold-56" transform="translate(3261.859375 0)"/>
    <use xlink:href="#DejaVuSans-Bold-3" transform="translate(3321.375 0)"/>
    <use xlink:href="#DejaVuSans-Bold-29" transform="translate(3356.1875 0)"/>
    <use xlink:href="#DejaVuSans-Bold-14" transform="translate(3424.5 0)"/>
   </g>
  </g>
  <g id="text_40">
   <!-- Paired exact gains: 3  |  Paired exact losses: 233  |  Fixed threshold; saved validation scores; no new training -->
   <g transform="translate(184.279531 345.1968) scale(0.1 -0.1)">
    <defs>
     <path id="DejaVuSans-33" d="M 1259 4147
L 1259 2394
L 2053 2394
Q 2494 2394 2734 2622
Q 2975 2850 2975 3272
Q 2975 3691 2734 3919
Q 2494 4147 2053 4147
L 1259 4147
z
M 628 4666
L 2053 4666
Q 2838 4666 3239 4311
Q 3641 3956 3641 3272
Q 3641 2581 3239 2228
Q 2838 1875 2053 1875
L 1259 1875
L 1259 0
L 628 0
L 628 4666
z
" transform="scale(0.015625)"/>
     <path id="DejaVuSans-5b" d="M 3513 3500
L 2247 1797
L 3578 0
L 2900 0
L 1881 1375
L 863 0
L 184 0
L 1544 1831
L 300 3500
L 978 3500
L 1906 2253
L 2834 3500
L 3513 3500
z
" transform="scale(0.015625)"/>
     <path id="DejaVuSans-1d" d="M 750 794
L 1409 794
L 1409 0
L 750 0
L 750 794
z
M 750 3309
L 1409 3309
L 1409 2516
L 750 2516
L 750 3309
z
" transform="scale(0.015625)"/>
     <path id="DejaVuSans-5f" d="M 1344 4891
L 1344 -1509
L 813 -1509
L 813 4891
L 1344 4891
z
" transform="scale(0.015625)"/>
     <path id="DejaVuSans-29" d="M 628 4666
L 3309 4666
L 3309 4134
L 1259 4134
L 1259 2759
L 3109 2759
L 3109 2228
L 1259 2228
L 1259 0
L 628 0
L 628 4666
z
" transform="scale(0.015625)"/>
     <path id="DejaVuSans-1e" d="M 750 3309
L 1409 3309
L 1409 2516
L 750 2516
L 750 3309
z
M 750 794
L 1409 794
L 1409 256
L 897 -744
L 494 -744
L 750 256
L 750 794
z
" transform="scale(0.015625)"/>
     <path id="DejaVuSans-5a" d="M 269 3500
L 844 3500
L 1563 769
L 2278 3500
L 2956 3500
L 3675 769
L 4391 3500
L 4966 3500
L 4050 0
L 3372 0
L 2619 2869
L 1863 0
L 1184 0
L 269 3500
z
" transform="scale(0.015625)"/>
    </defs>
    <use xlink:href="#DejaVuSans-33"/>
    <use xlink:href="#DejaVuSans-44" transform="translate(55.8125 0)"/>
    <use xlink:href="#DejaVuSans-4c" transform="translate(117.09375 0)"/>
    <use xlink:href="#DejaVuSans-55" transform="translate(144.875 0)"/>
    <use xlink:href="#DejaVuSans-48" transform="translate(183.78125 0)"/>
    <use xlink:href="#DejaVuSans-47" transform="translate(245.3125 0)"/>
    <use xlink:href="#DejaVuSans-3" transform="translate(308.796875 0)"/>
    <use xlink:href="#DejaVuSans-48" transform="translate(340.578125 0)"/>
    <use xlink:href="#DejaVuSans-5b" transform="translate(400.359375 0)"/>
    <use xlink:href="#DejaVuSans-44" transform="translate(459.546875 0)"/>
    <use xlink:href="#DejaVuSans-46" transform="translate(520.828125 0)"/>
    <use xlink:href="#DejaVuSans-57" transform="translate(575.8125 0)"/>
    <use xlink:href="#DejaVuSans-3" transform="translate(615.015625 0)"/>
    <use xlink:href="#DejaVuSans-4a" transform="translate(646.796875 0)"/>
    <use xlink:href="#DejaVuSans-44" transform="translate(710.28125 0)"/>
    <use xlink:href="#DejaVuSans-4c" transform="translate(771.5625 0)"/>
    <use xlink:href="#DejaVuSans-51" transform="translate(799.34375 0)"/>
    <use xlink:href="#DejaVuSans-56" transform="translate(862.71875 0)"/>
    <use xlink:href="#DejaVuSans-1d" transform="translate(914.8125 0)"/>
    <use xlink:href="#DejaVuSans-3" transform="translate(948.5 0)"/>
    <use xlink:href="#DejaVuSans-16" transform="translate(980.28125 0)"/>
    <use xlink:href="#DejaVuSans-3" transform="translate(1043.90625 0)"/>
    <use xlink:href="#DejaVuSans-3" transform="translate(1075.6875 0)"/>
    <use xlink:href="#DejaVuSans-5f" transform="translate(1107.46875 0)"/>
    <use xlink:href="#DejaVuSans-3" transform="translate(1141.15625 0)"/>
    <use xlink:href="#DejaVuSans-3" transform="translate(1172.9375 0)"/>
    <use xlink:href="#DejaVuSans-33" transform="translate(1204.71875 0)"/>
    <use xlink:href="#DejaVuSans-44" transform="translate(1260.53125 0)"/>
    <use xlink:href="#DejaVuSans-4c" transform="translate(1321.8125 0)"/>
    <use xlink:href="#DejaVuSans-55" transform="translate(1349.59375 0)"/>
    <use xlink:href="#DejaVuSans-48" transform="translate(1388.5 0)"/>
    <use xlink:href="#DejaVuSans-47" transform="translate(1450.03125 0)"/>
    <use xlink:href="#DejaVuSans-3" transform="translate(1513.515625 0)"/>
    <use xlink:href="#DejaVuSans-48" transform="translate(1545.296875 0)"/>
    <use xlink:href="#DejaVuSans-5b" transform="translate(1605.078125 0)"/>
    <use xlink:href="#DejaVuSans-44" transform="translate(1664.265625 0)"/>
    <use xlink:href="#DejaVuSans-46" transform="translate(1725.546875 0)"/>
    <use xlink:href="#DejaVuSans-57" transform="translate(1780.53125 0)"/>
    <use xlink:href="#DejaVuSans-3" transform="translate(1819.734375 0)"/>
    <use xlink:href="#DejaVuSans-4f" transform="translate(1851.515625 0)"/>
    <use xlink:href="#DejaVuSans-52" transform="translate(1879.296875 0)"/>
    <use xlink:href="#DejaVuSans-56" transform="translate(1940.484375 0)"/>
    <use xlink:href="#DejaVuSans-56" transform="translate(1992.578125 0)"/>
    <use xlink:href="#DejaVuSans-48" transform="translate(2044.671875 0)"/>
    <use xlink:href="#DejaVuSans-56" transform="translate(2106.203125 0)"/>
    <use xlink:href="#DejaVuSans-1d" transform="translate(2158.296875 0)"/>
    <use xlink:href="#DejaVuSans-3" transform="translate(2191.984375 0)"/>
    <use xlink:href="#DejaVuSans-15" transform="translate(2223.765625 0)"/>
    <use xlink:href="#DejaVuSans-16" transform="translate(2287.390625 0)"/>
    <use xlink:href="#DejaVuSans-16" transform="translate(2351.015625 0)"/>
    <use xlink:href="#DejaVuSans-3" transform="translate(2414.640625 0)"/>
    <use xlink:href="#DejaVuSans-3" transform="translate(2446.421875 0)"/>
    <use xlink:href="#DejaVuSans-5f" transform="translate(2478.203125 0)"/>
    <use xlink:href="#DejaVuSans-3" transform="translate(2511.890625 0)"/>
    <use xlink:href="#DejaVuSans-3" transform="translate(2543.671875 0)"/>
    <use xlink:href="#DejaVuSans-29" transform="translate(2575.453125 0)"/>
    <use xlink:href="#DejaVuSans-4c" transform="translate(2625.6875 0)"/>
    <use xlink:href="#DejaVuSans-5b" transform="translate(2653.46875 0)"/>
    <use xlink:href="#DejaVuSans-48" transform="translate(2709.578125 0)"/>
    <use xlink:href="#DejaVuSans-47" transform="translate(2771.109375 0)"/>
    <use xlink:href="#DejaVuSans-3" transform="translate(2834.59375 0)"/>
    <use xlink:href="#DejaVuSans-57" transform="translate(2866.375 0)"/>
    <use xlink:href="#DejaVuSans-4b" transform="translate(2905.578125 0)"/>
    <use xlink:href="#DejaVuSans-55" transform="translate(2968.953125 0)"/>
    <use xlink:href="#DejaVuSans-48" transform="translate(3007.859375 0)"/>
    <use xlink:href="#DejaVuSans-56" transform="translate(3069.390625 0)"/>
    <use xlink:href="#DejaVuSans-4b" transform="translate(3121.484375 0)"/>
    <use xlink:href="#DejaVuSans-52" transform="translate(3184.859375 0)"/>
    <use xlink:href="#DejaVuSans-4f" transform="translate(3246.046875 0)"/>
    <use xlink:href="#DejaVuSans-47" transform="translate(3273.828125 0)"/>
    <use xlink:href="#DejaVuSans-1e" transform="translate(3337.3125 0)"/>
    <use xlink:href="#DejaVuSans-3" transform="translate(3371 0)"/>
    <use xlink:href="#DejaVuSans-56" transform="translate(3402.78125 0)"/>
    <use xlink:href="#DejaVuSans-44" transform="translate(3454.875 0)"/>
    <use xlink:href="#DejaVuSans-59" transform="translate(3516.15625 0)"/>
    <use xlink:href="#DejaVuSans-48" transform="translate(3575.34375 0)"/>
    <use xlink:href="#DejaVuSans-47" transform="translate(3636.875 0)"/>
    <use xlink:href="#DejaVuSans-3" transform="translate(3700.359375 0)"/>
    <use xlink:href="#DejaVuSans-59" transform="translate(3732.140625 0)"/>
    <use xlink:href="#DejaVuSans-44" transform="translate(3791.328125 0)"/>
    <use xlink:href="#DejaVuSans-4f" transform="translate(3852.609375 0)"/>
    <use xlink:href="#DejaVuSans-4c" transform="translate(3880.390625 0)"/>
    <use xlink:href="#DejaVuSans-47" transform="translate(3908.171875 0)"/>
    <use xlink:href="#DejaVuSans-44" transform="translate(3971.65625 0)"/>
    <use xlink:href="#DejaVuSans-57" transform="translate(4032.9375 0)"/>
    <use xlink:href="#DejaVuSans-4c" transform="translate(4072.140625 0)"/>
    <use xlink:href="#DejaVuSans-52" transform="translate(4099.921875 0)"/>
    <use xlink:href="#DejaVuSans-51" transform="translate(4161.109375 0)"/>
    <use xlink:href="#DejaVuSans-3" transform="translate(4224.484375 0)"/>
    <use xlink:href="#DejaVuSans-56" transform="translate(4256.265625 0)"/>
    <use xlink:href="#DejaVuSans-46" transform="translate(4308.359375 0)"/>
    <use xlink:href="#DejaVuSans-52" transform="translate(4363.34375 0)"/>
    <use xlink:href="#DejaVuSans-55" transform="translate(4424.53125 0)"/>
    <use xlink:href="#DejaVuSans-48" transform="translate(4463.4375 0)"/>
    <use xlink:href="#DejaVuSans-56" transform="translate(4524.96875 0)"/>
    <use xlink:href="#DejaVuSans-1e" transform="translate(4577.0625 0)"/>
    <use xlink:href="#DejaVuSans-3" transform="translate(4610.75 0)"/>
    <use xlink:href="#DejaVuSans-51" transform="translate(4642.53125 0)"/>
    <use xlink:href="#DejaVuSans-52" transform="translate(4705.90625 0)"/>
    <use xlink:href="#DejaVuSans-3" transform="translate(4767.09375 0)"/>
    <use xlink:href="#DejaVuSans-51" transform="translate(4798.875 0)"/>
    <use xlink:href="#DejaVuSans-48" transform="translate(4862.25 0)"/>
    <use xlink:href="#DejaVuSans-5a" transform="translate(4923.78125 0)"/>
    <use xlink:href="#DejaVuSans-3" transform="translate(5005.5625 0)"/>
    <use xlink:href="#DejaVuSans-57" transform="translate(5037.34375 0)"/>
    <use xlink:href="#DejaVuSans-55" transform="translate(5076.546875 0)"/>
    <use xlink:href="#DejaVuSans-44" transform="translate(5117.65625 0)"/>
    <use xlink:href="#DejaVuSans-4c" transform="translate(5178.9375 0)"/>
    <use xlink:href="#DejaVuSans-51" transform="translate(5206.71875 0)"/>
    <use xlink:href="#DejaVuSans-4c" transform="translate(5270.09375 0)"/>
    <use xlink:href="#DejaVuSans-51" transform="translate(5297.875 0)"/>
    <use xlink:href="#DejaVuSans-4a" transform="translate(5361.25 0)"/>
   </g>
  </g>
 </g>
 <defs>
  <clipPath id="p12d93640c7">
   <rect x="35.19625" y="90.899516" width="414.38" height="198.012484"/>
  </clipPath>
  <clipPath id="p51756b415b">
   <rect x="490.05625" y="90.899516" width="414.38" height="198.012484"/>
  </clipPath>
 </defs>
</svg>
